<!DOCTYPE svg PUBLIC "-//W3C//DTD SVG 20010904//EN" "http://www.w3.org/TR/2001/REC-SVG-20010904/DTD/svg10.dtd">
<svg version="1.0" xmlns="http://www.w3.org/2000/svg" width="128px" height="128px" viewBox="0 0 1280 1280" preserveAspectRatio="xMidYMid meet">
<g id="layer101" fill="#563838" stroke="none">
<path d="M0 640 l0 -640 640 0 640 0 0 640 0 640 -640 0 -640 0 0 -640z"/>
</g>
<g id="layer102" fill="#683a39" stroke="none">
<path d="M515 1249 c-9 -17 -14 -33 -12 -36 6 -6 53 20 87 46 l25 21 -42 0 c-37 0 -44 -4 -58 -31z"/>
<path d="M690 1276 c0 -10 92 -68 98 -61 4 3 0 18 -9 33 -11 21 -24 28 -52 30 -20 2 -37 1 -37 -2z"/>
<path d="M950 1098 c0 -34 -3 -38 -25 -38 -13 0 -41 -11 -61 -25 -31 -21 -34 -26 -18 -31 64 -22 105 -46 139 -80 l38 -39 -6 55 c-8 68 -32 149 -51 175 -15 19 -15 18 -16 -17z"/>
<path d="M242 1067 c-42 -43 -92 -137 -92 -172 1 -11 14 7 33 43 18 34 49 85 70 113 21 28 36 53 34 55 -2 2 -22 -15 -45 -39z"/>
<path d="M327 1090 c-9 -13 -17 -30 -17 -37 0 -6 -6 -18 -14 -26 -14 -14 -40 -126 -31 -135 2 -3 22 11 44 31 43 39 110 77 136 77 8 0 15 3 15 8 0 10 -67 52 -83 52 -7 0 -17 12 -23 27 l-9 28 -18 -25z"/>
<path d="M1018 1083 c2 -16 12 -37 22 -48 39 -46 66 -94 97 -170 29 -70 33 -76 33 -45 0 84 -39 178 -102 246 -47 51 -57 54 -50 17z"/>
<path d="M243 1009 c-45 -54 -121 -288 -97 -296 6 -2 19 -10 29 -17 16 -12 17 -16 1 -69 -9 -31 -19 -63 -22 -72 -5 -11 1 -15 25 -15 38 0 47 -17 56 -97 8 -67 -7 -133 -31 -133 -19 0 -18 -13 7 -63 33 -65 39 -70 60 -52 15 15 20 15 46 2 74 -38 75 -36 33 60 -87 202 -133 523 -99 682 13 62 10 91 -8 70z"/>
<path d="M1034 974 c3 -22 9 -101 12 -176 10 -212 -18 -385 -86 -535 -17 -37 -28 -68 -26 -70 2 -2 16 2 31 9 23 10 28 10 36 -5 16 -27 25 -21 63 40 42 66 43 73 16 73 -27 0 -40 36 -40 106 0 75 21 124 54 124 15 0 26 5 26 10 0 21 18 9 24 -16 4 -14 12 -24 19 -21 8 2 13 35 15 95 3 99 -2 107 -49 81 -17 -8 -19 -18 -15 -62 l6 -52 -14 40 c-22 63 -20 74 19 91 31 13 35 18 29 42 -15 64 -48 151 -75 199 -40 69 -53 77 -45 27z"/>
<path d="M365 844 c-79 -20 -85 -25 -85 -59 0 -19 5 -37 10 -40 6 -3 10 -2 10 2 0 5 7 18 15 29 13 17 14 16 5 -16 -14 -51 -12 -68 10 -90 27 -27 80 -27 80 -1 0 30 -27 47 -52 32 -17 -11 -19 -10 -15 6 3 10 8 32 12 48 10 43 33 65 71 65 49 0 51 -18 2 -22 -37 -3 -44 -7 -53 -31 -8 -24 -6 -31 10 -43 17 -13 20 -12 27 5 11 32 29 36 48 11 18 -24 40 -20 40 6 0 8 5 12 11 8 6 -3 9 -24 7 -46 -3 -34 -1 -38 17 -36 18 3 20 11 23 74 l3 72 -33 11 c-38 14 -134 22 -163 15z"/>
<path d="M812 788 c-15 -15 -16 -54 -1 -64 7 -4 19 3 29 16 19 25 37 21 48 -11 7 -17 10 -18 27 -5 16 12 18 19 10 43 -9 24 -16 28 -55 31 -26 2 -50 -2 -58 -10z"/>
<path d="M1211 760 c-2 -3 -5 -32 -7 -65 -3 -46 -2 -56 6 -42 6 9 9 39 7 65 -2 26 -5 45 -6 42z"/>
<path d="M260 718 c0 -54 46 -282 74 -364 31 -93 81 -190 102 -198 50 -19 205 -29 290 -19 151 19 163 26 207 114 43 87 83 233 92 340 l6 74 -35 -103 c-43 -130 -86 -232 -98 -232 -11 0 -12 -5 28 94 19 49 33 91 30 93 -3 3 -26 -2 -52 -11 -26 -9 -60 -16 -74 -16 -26 0 -27 -3 -33 -65 -7 -68 -42 -203 -58 -219 -5 -6 -9 36 -9 105 0 148 -3 159 -45 159 -27 0 -34 -5 -39 -25 -8 -31 -24 -32 -35 -2 -8 21 -20 25 -80 34 -69 9 -72 8 -87 -14 -18 -28 -34 -22 -34 12 0 17 -9 29 -30 40 -28 14 -30 14 -30 -2 0 -10 16 -54 35 -97 32 -74 38 -103 15 -80 -17 17 -82 199 -111 309 -20 80 -28 100 -29 73z m607 -340 c-3 -8 -6 -5 -6 6 -1 11 2 17 5 13 3 -3 4 -12 1 -19z m-380 -5 c-4 -3 -7 0 -7 7 0 7 3 10 7 7 3 -4 3 -10 0 -14z m10 -40 c-4 -3 -7 0 -7 7 0 7 3 10 7 7 3 -4 3 -10 0 -14z m360 0 c-4 -3 -7 0 -7 7 0 7 3 10 7 7 3 -4 3 -10 0 -14z"/>
<path d="M0 651 c0 -46 40 -141 59 -141 22 0 21 9 -15 138 -19 70 -44 72 -44 3z"/>
<path d="M91 623 c1 -43 3 -86 6 -95 10 -39 29 -14 51 64 22 78 22 83 6 95 -10 7 -29 13 -42 13 -23 0 -23 -2 -21 -77z"/>
<path d="M1247 693 c-6 -10 -47 -162 -47 -175 0 -4 7 -8 15 -8 22 0 67 106 63 149 -3 33 -20 52 -31 34z"/>
<path d="M165 519 c-11 -6 -33 -25 -48 -42 l-28 -32 7 28 c6 25 4 28 -12 25 -11 -3 -31 1 -45 8 -15 7 -29 10 -33 7 -8 -8 -8 -158 0 -166 4 -3 15 -2 26 4 14 7 17 16 12 32 -6 21 -6 21 13 5 26 -23 43 -23 43 1 0 15 8 10 40 -21 55 -55 74 -49 78 24 3 57 -12 138 -26 138 -4 0 -16 -5 -27 -11z"/>
<path d="M1069 503 c-11 -29 -14 -146 -4 -163 10 -16 31 -12 62 14 21 17 36 23 56 19 24 -5 29 -1 40 26 15 40 29 41 15 0 -12 -35 0 -56 26 -46 13 5 16 22 16 81 0 74 -11 99 -33 77 -6 -6 -26 -11 -45 -11 -30 0 -33 -2 -27 -22 5 -20 4 -21 -7 -8 -19 22 -69 60 -80 60 -4 0 -13 -12 -19 -27z"/>
<path d="M1143 348 c-5 -7 -24 -43 -43 -81 l-33 -67 24 -26 c51 -55 169 -96 169 -58 0 8 5 12 10 9 6 -4 10 10 10 35 0 38 -38 130 -72 171 -18 23 -53 32 -65 17z"/>
</g>
<g id="layer103" fill="#704841" stroke="none">
<path d="M0 995 c0 -279 0 -285 20 -285 13 0 25 -10 32 -27 10 -26 12 -21 19 52 10 101 38 225 50 225 5 0 9 -8 10 -17 0 -10 11 6 24 36 30 65 153 191 166 170 15 -25 16 -4 1 64 l-15 67 -153 0 -154 0 0 -285z"/>
<path d="M975 1268 c-16 -52 -21 -109 -11 -118 8 -6 16 -6 23 1 16 16 134 -107 163 -169 19 -42 26 -50 31 -35 6 15 9 14 19 -12 6 -16 19 -74 27 -127 14 -83 19 -98 35 -98 17 0 18 15 18 285 l0 285 -150 0 c-112 0 -152 -3 -155 -12z"/>
<path d="M600 1140 c-6 -12 -9 -27 -7 -35 3 -7 1 -17 -4 -22 -6 -6 -7 -22 -3 -37 6 -24 10 -26 59 -26 39 0 54 4 59 16 8 22 8 54 -2 54 -4 0 -7 15 -7 33 0 31 -2 32 -42 35 -34 3 -44 -1 -53 -18z"/>
<path d="M948 1094 c-3 -35 -6 -39 -28 -37 -14 2 -37 -7 -54 -21 l-29 -24 62 -27 c34 -16 75 -43 91 -62 28 -31 30 -32 30 -11 0 40 -36 174 -53 198 -16 22 -16 22 -19 -16z"/>
<path d="M241 1065 c-44 -48 -91 -136 -91 -170 0 -11 16 12 34 50 19 39 51 89 71 113 51 58 38 64 -14 7z"/>
<path d="M325 1075 c-11 -22 -25 -47 -32 -55 -7 -9 -15 -43 -19 -75 l-7 -60 47 43 c42 39 67 53 130 76 17 6 15 10 -17 31 -19 14 -42 22 -50 19 -9 -3 -17 6 -24 28 l-10 33 -18 -40z"/>
<path d="M1020 1081 c4 -16 22 -47 38 -68 36 -45 65 -99 93 -174 l20 -54 -5 55 c-3 31 -13 76 -21 100 -17 50 -78 135 -112 157 -22 15 -22 14 -13 -16z"/>
<path d="M226 977 c-29 -50 -70 -164 -80 -223 -6 -37 -5 -41 18 -52 31 -14 31 -19 7 -100 l-20 -64 24 6 c35 9 57 -30 62 -112 5 -73 -8 -122 -32 -122 -20 0 -13 -27 22 -89 24 -41 27 -43 39 -26 13 17 15 17 69 -3 l55 -21 -29 57 c-94 185 -148 534 -112 721 7 34 10 65 8 68 -3 2 -17 -15 -31 -40z"/>
<path d="M565 1004 c-71 -10 -142 -28 -175 -44 -38 -20 -107 -86 -98 -95 3 -3 33 -1 67 4 37 6 82 6 114 1 103 -17 127 -35 127 -97 l0 -43 55 0 55 0 0 51 c0 48 1 51 36 65 62 26 132 35 197 24 34 -5 63 -7 66 -5 2 3 -16 25 -42 50 -34 32 -64 49 -111 64 -63 19 -228 34 -291 25z m150 -78 c19 -8 35 -20 35 -26 0 -6 -11 -5 -30 5 -38 19 -99 19 -128 -1 -12 -8 -22 -11 -22 -5 0 18 44 41 78 41 18 0 48 -7 67 -14z"/>
<path d="M1037 960 c4 -30 8 -140 7 -245 0 -215 -17 -306 -80 -444 -19 -41 -32 -76 -30 -78 2 -2 16 2 31 9 24 11 29 10 41 -7 14 -18 14 -18 29 1 9 10 27 40 40 67 24 45 25 47 6 47 -29 0 -41 30 -41 104 0 96 22 143 63 130 21 -7 21 -7 1 65 -20 69 -15 86 25 103 l29 13 -14 55 c-17 65 -65 170 -94 208 l-21 26 8 -54z"/>
<path d="M365 844 c-79 -20 -85 -25 -85 -59 0 -19 5 -37 10 -40 6 -3 10 -2 10 2 0 5 7 18 15 29 13 17 14 16 5 -16 -14 -51 -12 -68 10 -90 27 -27 80 -27 80 -1 0 30 -27 47 -52 32 -17 -11 -19 -10 -15 6 3 10 8 32 12 48 4 17 14 38 22 48 17 18 78 24 88 7 4 -6 -9 -10 -33 -10 -32 0 -41 -5 -50 -25 -13 -28 -6 -55 13 -55 7 0 15 9 18 20 7 26 32 26 51 -1 15 -22 36 -18 36 7 0 8 5 12 11 8 6 -3 9 -24 7 -46 -3 -34 -1 -38 17 -36 18 3 20 11 23 74 l3 72 -33 11 c-38 14 -134 22 -163 15z"/>
<path d="M835 844 c-74 -19 -83 -25 -89 -58 -4 -19 -4 -52 0 -74 6 -38 8 -40 51 -47 51 -7 57 -4 48 24 -8 26 -40 27 -55 4 -9 -14 -10 -5 -7 39 5 74 17 88 77 88 64 0 82 -21 89 -108 l6 -67 20 30 c11 17 25 35 31 40 7 6 15 31 18 56 7 46 6 47 -26 58 -38 14 -134 22 -163 15z"/>
<path d="M810 781 c-23 -43 0 -80 26 -42 20 29 42 26 50 -5 l7 -26 20 20 c19 20 19 22 3 46 -21 33 -89 37 -106 7z"/>
<path d="M91 744 c0 -11 3 -14 6 -6 3 7 2 16 -1 19 -3 4 -6 -2 -5 -13z"/>
<path d="M1208 725 c-4 -22 -8 -51 -8 -65 1 -22 2 -23 11 -7 5 9 9 39 7 65 l-3 47 -7 -40z"/>
<path d="M266 690 c7 -82 48 -279 74 -354 10 -31 33 -83 51 -116 30 -57 33 -59 88 -72 83 -18 242 -16 334 6 l79 18 39 81 c45 94 84 240 92 342 3 39 3 61 0 50 -32 -120 -109 -315 -124 -315 -14 0 -11 8 26 100 19 46 33 86 31 87 -2 2 -20 -2 -40 -9 -37 -13 -38 -13 -41 -77 -5 -67 -20 -129 -38 -146 -7 -7 -7 -4 -2 10 17 42 36 150 30 172 -4 17 -13 23 -34 23 -27 0 -28 -2 -33 -62 -6 -72 -47 -228 -60 -228 -4 0 -8 47 -8 104 0 145 -5 166 -41 166 -22 0 -32 -6 -39 -25 -12 -32 -36 -32 -44 -1 -5 20 -13 24 -58 29 -61 5 -70 -2 -62 -53 3 -19 7 -48 10 -65 4 -25 3 -27 -6 -12 -6 9 -13 44 -14 77 -4 71 -11 83 -27 46 -15 -33 -31 -29 -41 11 -5 19 -16 33 -30 36 -12 4 -24 5 -26 3 -3 -3 39 -115 65 -173 3 -7 0 -13 -7 -13 -24 0 -96 194 -135 360 l-15 65 6 -65z m262 -415 c-3 -3 -9 2 -12 12 -6 14 -5 15 5 6 7 -7 10 -15 7 -18z"/>
<path d="M7 694 c-24 -24 23 -184 53 -184 15 0 12 27 -9 104 -19 69 -32 92 -44 80z"/>
<path d="M96 683 c-8 -27 8 -168 19 -168 12 0 57 157 47 166 -4 4 -19 11 -34 14 -20 5 -27 3 -32 -12z"/>
<path d="M1126 687 c-17 -13 -17 -17 4 -93 12 -43 24 -81 27 -84 12 -13 23 34 23 108 0 72 -2 82 -18 82 -10 0 -26 -6 -36 -13z"/>
<path d="M1231 633 c-25 -85 -29 -111 -16 -115 19 -6 65 94 63 136 -5 64 -25 55 -47 -21z"/>
<path d="M596 675 c-3 -9 -20 -22 -39 -30 -18 -7 -41 -23 -51 -34 -25 -27 -86 -27 -145 -1 -24 11 -45 19 -46 18 -1 -2 2 -18 7 -35 6 -24 19 -38 50 -54 39 -20 43 -20 102 -5 69 17 89 14 27 -5 -54 -16 -41 -27 39 -35 40 -4 70 -12 77 -22 11 -13 13 -13 19 1 4 13 19 17 54 17 47 0 47 0 54 -37 3 -21 6 -58 6 -83 0 -77 22 -30 24 52 1 72 2 73 31 84 l30 11 -40 13 c-69 22 -60 29 12 9 57 -17 75 -18 110 -8 24 6 47 17 53 24 11 13 25 75 17 75 -2 0 -24 -9 -48 -20 -24 -11 -62 -20 -84 -20 -40 0 -54 8 -133 79 -29 26 -116 30 -126 6z"/>
<path d="M145 499 c-34 -30 -37 -36 -32 -73 4 -30 14 -48 38 -68 18 -16 39 -28 46 -28 29 0 28 165 -2 190 -10 8 -22 4 -50 -21z"/>
<path d="M1070 494 c-16 -41 -13 -154 5 -160 31 -12 95 63 95 112 0 21 -51 74 -71 74 -12 0 -23 -10 -29 -26z"/>
<path d="M0 431 c0 -60 3 -81 13 -81 24 0 37 21 26 42 -5 10 -9 40 -7 65 2 38 0 48 -14 51 -16 3 -18 -6 -18 -77z"/>
<path d="M425 500 c4 -6 11 -8 16 -5 14 9 11 15 -7 15 -8 0 -12 -5 -9 -10z"/>
<path d="M62 475 c-16 -36 -15 -71 4 -89 26 -27 31 -19 30 49 -1 69 -14 84 -34 40z"/>
<path d="M1182 435 c-1 -70 8 -80 34 -40 17 26 13 67 -8 92 -19 24 -25 13 -26 -52z"/>
<path d="M94 353 c-29 -6 -85 -103 -91 -157 -6 -54 2 -92 21 -99 18 -7 130 46 160 76 l24 24 -40 79 c-42 84 -41 83 -74 77z"/>
<path d="M1143 348 c-5 -7 -24 -44 -42 -81 l-33 -69 23 -25 c51 -54 169 -94 169 -57 0 8 5 12 10 9 6 -4 10 10 10 35 0 38 -38 130 -72 171 -18 23 -53 32 -65 17z"/>
<path d="M267 161 c-22 -37 -22 -73 1 -101 l17 -21 24 25 c14 14 29 26 35 26 6 0 5 -5 -2 -12 -9 -9 -8 -16 6 -31 12 -15 14 -21 5 -24 -35 -12 -5 -23 62 -23 68 0 75 2 75 20 0 11 5 20 11 20 6 0 8 -9 4 -20 -5 -14 -2 -20 9 -20 9 0 16 7 16 15 0 8 5 15 11 15 6 0 9 -7 5 -15 -4 -13 9 -15 89 -15 84 0 95 2 95 18 1 16 1 16 11 0 14 -25 29 -22 30 5 l0 22 11 -22 c10 -21 18 -23 85 -23 72 0 73 0 61 21 -10 17 -10 23 -1 26 8 3 11 15 7 31 -5 26 -5 26 25 -8 29 -34 30 -35 45 -15 27 34 28 53 6 95 -16 32 -25 40 -38 34 -132 -58 -290 -82 -430 -64 -81 10 -183 37 -242 64 -11 4 -21 -3 -33 -23z"/>
<path d="M310 29 c0 -5 5 -7 10 -4 6 3 10 8 10 11 0 2 -4 4 -10 4 -5 0 -10 -5 -10 -11z"/>
<path d="M950 32 c0 -12 19 -26 26 -19 2 2 -2 10 -11 17 -9 8 -15 8 -15 2z"/>
</g>
<g id="layer104" fill="#375e6a" stroke="none">
<path d="M626 1230 c-9 -22 -16 -43 -16 -45 0 -3 16 -5 35 -5 19 0 35 5 35 10 0 14 -28 80 -33 80 -3 0 -12 -18 -21 -40z"/>
<path d="M560 1220 c-25 -16 -54 -36 -65 -43 -32 -22 -78 -95 -72 -111 8 -19 70 -46 107 -46 26 0 27 3 40 73 7 39 19 89 27 110 9 21 14 40 12 42 -3 2 -25 -9 -49 -25z"/>
<path d="M694 1218 c7 -21 30 -121 42 -175 7 -37 76 -29 126 14 15 14 16 19 3 42 -16 31 -64 77 -121 114 -49 33 -58 34 -50 5z"/>
</g>
<g id="layer105" fill="#92393d" stroke="none">
<path d="M527 1262 c-10 -10 -17 -26 -17 -36 0 -20 17 -12 65 28 l30 25 -31 1 c-18 0 -38 -8 -47 -18z"/>
<path d="M710 1259 c31 -24 80 -52 80 -44 0 3 -7 19 -15 35 -13 25 -22 30 -53 30 l-37 0 25 -21z"/>
<path d="M7 694 c-16 -17 -6 -89 20 -135 45 -84 56 -60 24 55 -19 69 -32 92 -44 80z"/>
<path d="M99 684 c-6 -97 11 -206 25 -163 27 80 45 154 39 160 -5 4 -20 11 -35 14 -23 6 -28 4 -29 -11z"/>
<path d="M1133 690 c-13 -5 -23 -13 -23 -17 0 -11 42 -158 47 -163 12 -13 23 34 23 108 0 86 -2 90 -47 72z"/>
<path d="M1251 686 c-14 -16 -51 -158 -44 -169 8 -13 23 3 48 53 35 69 32 159 -4 116z"/>
<path d="M136 491 c-25 -26 -28 -35 -23 -68 6 -38 56 -93 84 -93 18 0 27 66 17 129 -11 68 -34 78 -78 32z"/>
<path d="M1070 494 c-13 -34 -13 -151 1 -159 17 -11 78 38 90 72 13 41 5 67 -28 93 -34 27 -51 25 -63 -6z"/>
<path d="M0 436 c0 -76 10 -97 35 -76 11 9 12 17 4 31 -5 11 -9 41 -7 66 2 38 0 48 -14 51 -16 3 -18 -5 -18 -72z"/>
<path d="M1236 502 c-3 -5 -1 -24 5 -41 8 -22 8 -40 0 -63 -13 -35 -2 -54 24 -44 24 9 18 149 -7 154 -9 2 -19 -1 -22 -6z"/>
<path d="M66 478 c-21 -30 -20 -71 2 -91 10 -10 21 -17 24 -17 3 0 4 29 4 65 -1 36 -4 65 -8 65 -4 0 -14 -10 -22 -22z"/>
<path d="M1183 435 c-2 -69 7 -80 33 -40 17 26 13 67 -8 92 -19 23 -23 14 -25 -52z"/>
</g>
<g id="layer106" fill="#665455" stroke="none">
<path d="M0 995 c0 -279 0 -285 20 -285 13 0 25 -10 32 -27 10 -26 12 -21 19 52 5 44 16 113 24 153 15 68 28 88 38 60 2 -7 13 9 25 36 27 60 150 185 163 165 15 -25 16 -4 1 64 l-15 67 -153 0 -154 0 0 -285z"/>
<path d="M330 1266 c0 -24 30 -148 41 -168 14 -26 24 -22 49 19 22 38 22 50 -3 118 -13 35 -19 40 -51 43 -27 2 -36 -1 -36 -12z"/>
<path d="M426 1258 c12 -39 35 -80 42 -73 3 3 14 26 23 50 l17 45 -45 0 c-41 0 -44 -1 -37 -22z"/>
<path d="M788 1268 c6 -7 14 -28 19 -47 12 -47 26 -48 46 -6 27 57 23 65 -29 65 -36 0 -44 -3 -36 -12z"/>
<path d="M890 1265 c0 -8 -10 -34 -21 -59 l-22 -44 22 -36 c27 -43 38 -45 51 -11 8 22 40 149 40 161 0 2 -16 4 -35 4 -24 0 -35 -5 -35 -15z"/>
<path d="M975 1268 c-16 -52 -21 -109 -11 -118 8 -6 16 -6 23 1 16 16 134 -107 163 -169 19 -42 26 -50 31 -35 6 15 8 14 18 -11 6 -15 19 -69 27 -120 18 -102 19 -106 40 -106 12 0 14 44 14 285 l0 285 -150 0 c-112 0 -152 -3 -155 -12z"/>
<path d="M559 1218 c-101 -72 -149 -132 -126 -160 17 -20 70 -40 98 -36 20 3 25 12 36 73 7 39 20 87 29 108 10 20 15 39 12 42 -2 3 -24 -9 -49 -27z"/>
<path d="M690 1227 c0 -7 4 -17 9 -22 5 -6 17 -46 26 -89 19 -92 20 -96 44 -96 29 0 91 29 98 46 7 19 -39 89 -74 111 -16 9 -41 27 -56 40 -32 26 -47 29 -47 10z"/>
<path d="M600 1140 c-6 -12 -9 -27 -7 -35 3 -7 1 -17 -4 -22 -6 -6 -7 -21 -4 -35 6 -22 11 -24 60 -24 52 1 55 2 61 30 3 16 2 31 -2 35 -5 3 -9 20 -9 36 0 28 -3 30 -42 33 -34 3 -44 -1 -53 -18z"/>
<path d="M553 1000 c-106 -11 -168 -36 -221 -86 -25 -24 -43 -46 -40 -49 2 -3 30 0 60 5 62 12 150 2 211 -24 36 -14 37 -17 37 -65 l0 -51 55 0 55 0 0 50 c0 44 3 51 28 64 49 25 152 39 213 28 30 -6 55 -9 56 -8 1 1 -10 16 -24 34 -27 36 -95 74 -158 90 -59 15 -190 20 -272 12z m167 -75 c17 -9 30 -20 30 -26 0 -5 -13 -3 -30 6 -38 19 -99 19 -128 -1 -12 -8 -22 -11 -22 -5 0 37 97 53 150 26z"/>
<path d="M370 844 c-70 -14 -90 -25 -90 -52 0 -25 20 -70 20 -46 0 5 7 19 15 30 13 17 14 16 5 -16 -6 -19 -10 -43 -10 -52 0 -28 37 -58 71 -58 25 0 30 3 27 21 -2 12 -11 27 -21 33 -15 9 -21 7 -33 -9 -14 -18 -14 -16 -8 25 7 49 21 81 38 92 16 11 74 10 81 -2 4 -6 -8 -10 -29 -10 -44 0 -77 -39 -56 -65 17 -20 27 -19 33 5 7 27 44 26 52 -1 9 -29 38 -5 29 25 -5 20 -5 19 11 -2 11 -15 16 -36 13 -58 -4 -31 -2 -35 16 -32 19 3 21 11 24 74 l3 72 -32 11 c-39 13 -124 21 -159 15z"/>
<path d="M845 846 c-5 -2 -29 -9 -52 -16 -47 -14 -57 -39 -46 -115 9 -66 33 -61 33 8 0 77 18 99 82 95 66 -4 90 -33 90 -107 0 -55 10 -64 29 -28 7 12 18 27 25 32 6 6 15 31 18 56 7 46 6 47 -26 58 -34 12 -136 23 -153 17z"/>
<path d="M794 695 c-8 -21 4 -35 32 -35 25 0 28 7 18 34 -8 20 -43 21 -50 1z"/>
<path d="M595 671 c-3 -10 -18 -22 -32 -26 -15 -3 -37 -17 -50 -31 -28 -31 -97 -33 -153 -4 -22 11 -41 20 -44 20 -2 0 1 -16 7 -35 8 -27 21 -40 53 -56 42 -20 45 -20 100 -4 31 9 58 14 61 11 3 -2 -13 -10 -36 -17 -22 -6 -38 -15 -36 -19 3 -5 36 -11 75 -15 49 -5 73 -12 79 -24 9 -15 10 -15 16 2 6 13 19 17 55 17 47 0 47 0 54 -37 3 -21 6 -58 6 -83 1 -76 23 -17 24 63 1 66 2 68 30 75 l29 8 -41 12 c-23 7 -44 17 -47 22 -3 4 25 0 63 -11 59 -17 73 -17 112 -6 37 11 47 19 59 50 7 21 12 40 9 42 -3 3 -25 -4 -49 -15 -67 -30 -122 -27 -161 10 -17 17 -37 30 -44 30 -7 0 -16 9 -19 20 -5 17 -15 20 -60 20 -44 0 -55 -3 -60 -19z"/>
<path d="M280 620 c0 -30 40 -205 65 -284 14 -44 38 -102 54 -127 29 -46 31 -47 103 -59 85 -15 271 -8 338 12 43 12 47 17 88 98 43 87 75 193 86 290 6 53 5 50 -32 -50 -48 -131 -68 -170 -88 -170 -9 0 -14 5 -11 13 54 125 68 159 64 163 -2 2 -17 1 -34 -2 -30 -6 -31 -7 -35 -77 -5 -68 -32 -157 -44 -145 -3 4 2 30 10 59 9 29 16 75 16 102 0 46 -1 49 -22 43 -13 -3 -26 -6 -29 -6 -3 0 -9 -33 -12 -72 -6 -74 -45 -209 -61 -212 -5 0 -9 55 -10 124 -1 69 -5 131 -9 138 -13 19 -55 15 -62 -7 -3 -11 -12 -24 -20 -31 -11 -9 -17 -5 -30 19 -14 29 -20 31 -67 31 l-51 0 6 -65 c3 -35 13 -78 22 -96 9 -17 14 -33 11 -36 -11 -11 -49 93 -55 152 -6 55 -7 58 -19 38 -18 -32 -38 -28 -48 8 -5 18 -19 35 -31 40 -21 8 -21 7 -8 -29 7 -20 22 -61 34 -91 22 -54 22 -69 1 -56 -15 9 -44 76 -86 200 -18 55 -34 93 -34 85z"/>
<path d="M1266 551 c-4 -7 -5 -15 -2 -18 9 -9 19 4 14 18 -4 11 -6 11 -12 0z"/>
<path d="M425 500 c3 -5 8 -10 11 -10 2 0 4 5 4 10 0 6 -5 10 -11 10 -5 0 -7 -4 -4 -10z"/>
<path d="M94 353 c-12 -3 -34 -26 -54 -59 -56 -93 -53 -194 7 -194 23 0 112 51 136 78 18 20 18 22 -18 96 -40 82 -41 84 -71 79z"/>
<path d="M1144 348 c-5 -7 -23 -44 -42 -82 l-33 -69 22 -23 c28 -30 115 -74 146 -74 14 0 23 6 23 16 0 8 5 12 10 9 6 -4 10 10 10 35 0 38 -38 130 -72 171 -18 24 -54 33 -64 17z"/>
<path d="M0 298 c0 -34 4 -32 31 15 8 14 6 17 -11 17 -16 0 -20 -6 -20 -32z"/>
<path d="M1251 295 c12 -19 23 -35 25 -35 2 0 4 16 4 35 0 31 -3 35 -25 35 l-24 0 20 -35z"/>
<path d="M267 161 c-22 -37 -22 -73 1 -101 l17 -21 24 25 c14 14 29 26 35 26 6 0 5 -5 -2 -12 -9 -9 -8 -16 6 -31 12 -15 14 -21 5 -24 -35 -12 -5 -23 62 -23 68 0 75 2 75 20 0 11 5 20 11 20 6 0 8 -9 4 -20 -5 -14 -2 -20 9 -20 9 0 16 7 16 15 0 8 5 15 11 15 6 0 9 -7 5 -15 -4 -13 9 -15 89 -15 84 0 95 2 95 18 1 16 1 16 11 0 14 -25 29 -22 30 5 l0 22 11 -22 c10 -21 18 -23 85 -23 72 0 73 0 61 21 -10 17 -10 23 -1 26 8 3 11 15 7 31 -5 26 -5 26 25 -8 29 -34 30 -35 45 -15 27 34 28 53 6 95 -16 32 -25 40 -38 34 -208 -92 -468 -92 -672 0 -11 4 -21 -3 -33 -23z"/>
<path d="M194 159 c-31 -34 -133 -81 -166 -77 -24 4 -28 1 -28 -19 0 -22 3 -23 76 -23 41 0 94 5 117 11 l42 10 0 56 c0 62 -12 74 -41 42z"/>
<path d="M1036 164 c-3 -8 -2 -23 3 -32 5 -10 7 -29 4 -43 -6 -35 9 -40 135 -47 l102 -5 0 26 c0 24 -3 25 -33 20 -37 -6 -111 26 -165 71 -35 30 -38 31 -46 10z"/>
<path d="M228 42 c-21 -4 -24 -30 -4 -38 8 -3 28 -4 46 -2 l32 3 -28 20 c-16 12 -37 19 -46 17z"/>
<path d="M1021 20 l-23 -20 141 0 c78 0 141 4 141 9 0 4 -44 11 -97 14 -54 3 -107 8 -118 11 -12 4 -29 -2 -44 -14z"/>
<path d="M0 10 c0 -6 35 -10 86 -10 54 0 83 4 79 10 -8 13 -165 13 -165 0z"/>
</g>
<g id="layer107" fill="#885445" stroke="none">
<path d="M605 1151 c-3 -5 -7 -22 -10 -38 -14 -90 -14 -89 50 -89 48 1 55 4 60 24 3 13 2 28 -2 35 -4 7 -6 20 -5 30 2 10 -2 25 -8 33 -14 16 -76 19 -85 5z"/>
<path d="M950 1086 c0 -34 -2 -38 -21 -33 -12 3 -34 -4 -54 -18 l-34 -23 46 -17 c25 -10 64 -34 86 -54 l40 -36 -6 55 c-9 71 -23 121 -42 145 -13 19 -14 18 -15 -19z"/>
<path d="M337 1094 c-18 -19 -56 -114 -63 -159 l-7 -50 35 38 c19 20 61 48 92 63 l57 26 -25 19 c-13 10 -33 19 -44 19 -13 0 -23 9 -29 26 -5 14 -12 22 -16 18z"/>
<path d="M1020 1089 c0 -8 16 -37 36 -64 20 -28 52 -81 71 -120 l35 -70 -6 45 c-4 25 -18 68 -31 95 -26 53 -105 140 -105 114z"/>
<path d="M233 1048 c-25 -28 -63 -89 -63 -103 0 -5 12 10 26 35 14 25 35 55 46 68 12 12 19 22 16 22 -2 0 -14 -10 -25 -22z"/>
<path d="M553 1000 c-106 -12 -168 -36 -221 -86 -25 -24 -43 -46 -41 -49 3 -2 33 0 68 6 67 12 160 0 213 -27 25 -13 28 -20 28 -64 l0 -50 55 0 55 0 0 50 c0 44 3 51 28 64 50 26 145 39 206 29 31 -6 56 -7 56 -3 0 19 -47 63 -88 84 -85 42 -225 60 -359 46z m167 -75 c17 -9 30 -20 30 -25 0 -13 -3 -13 -36 5 -37 19 -77 19 -115 -1 -32 -16 -43 -16 -31 2 23 35 103 45 152 19z"/>
<path d="M218 953 c-31 -57 -68 -174 -68 -213 0 -20 6 -31 20 -35 24 -8 25 -34 5 -101 -8 -27 -15 -50 -15 -51 0 -2 11 -3 26 -3 35 0 54 -49 54 -144 0 -64 -3 -78 -22 -95 -21 -20 -21 -21 -3 -61 24 -52 39 -65 55 -45 10 12 16 13 39 1 14 -7 36 -17 48 -20 22 -7 22 -6 -7 58 -41 90 -74 209 -99 355 -24 139 -26 219 -10 322 6 39 9 72 7 75 -3 2 -16 -17 -30 -43z"/>
<path d="M1047 920 c10 -90 9 -322 0 -369 -7 -33 -6 -34 11 -18 10 10 26 17 35 17 21 0 21 11 2 74 -20 65 -20 64 20 83 19 9 35 22 35 28 0 25 -34 123 -61 175 -47 92 -51 93 -42 10z"/>
<path d="M370 844 c-70 -13 -90 -25 -90 -52 0 -25 20 -70 20 -46 0 5 6 19 14 30 13 17 13 14 5 -28 -13 -58 -1 -84 42 -93 39 -9 55 5 40 34 -14 26 -36 27 -50 4 -10 -17 -10 -16 -11 2 0 33 20 93 36 110 17 17 94 21 94 5 0 -5 -16 -10 -35 -10 -43 0 -76 -40 -55 -65 17 -20 27 -19 33 5 7 27 44 26 52 -1 9 -29 38 -5 29 25 -5 20 -5 19 11 -2 11 -15 16 -36 13 -58 -4 -31 -2 -35 16 -32 19 3 21 11 24 71 l3 68 -34 14 c-38 16 -120 26 -157 19z"/>
<path d="M810 774 c-8 -21 -8 -31 4 -42 12 -12 15 -11 21 7 8 27 45 28 52 1 6 -23 16 -25 31 -7 8 9 7 20 -1 37 -10 20 -21 26 -55 28 -38 3 -43 0 -52 -24z"/>
<path d="M1210 690 c0 -7 3 -10 7 -7 3 4 3 10 0 14 -4 3 -7 0 -7 -7z"/>
<path d="M271 654 c0 -11 3 -14 6 -6 3 7 2 16 -1 19 -3 4 -6 -2 -5 -13z"/>
<path d="M280 620 c0 -30 40 -205 65 -284 14 -44 38 -102 54 -127 29 -46 31 -47 103 -59 85 -15 271 -8 338 12 43 12 47 17 88 98 43 87 75 193 86 290 6 53 5 50 -32 -50 -48 -131 -68 -170 -88 -170 -9 0 -14 5 -11 13 54 125 68 159 64 163 -2 2 -17 1 -34 -2 -30 -6 -31 -7 -35 -77 -5 -68 -32 -157 -44 -145 -3 4 2 30 10 59 9 29 16 75 16 102 0 46 -1 49 -22 43 -13 -3 -26 -6 -29 -6 -3 0 -9 -33 -12 -72 -6 -74 -45 -209 -61 -212 -5 0 -9 55 -10 124 -1 69 -5 131 -9 138 -13 19 -55 15 -62 -7 -3 -11 -12 -24 -20 -31 -11 -9 -17 -5 -30 19 -14 29 -20 31 -67 31 l-51 0 6 -65 c3 -35 13 -78 22 -96 9 -17 14 -33 11 -36 -11 -12 -49 94 -55 152 -6 55 -8 58 -19 38 -18 -32 -38 -28 -48 8 -5 18 -19 35 -31 40 -21 8 -21 7 -8 -29 7 -20 22 -61 34 -91 22 -54 22 -69 1 -56 -15 9 -44 76 -86 200 -18 55 -34 93 -34 85z"/>
<path d="M1017 400 c-4 -19 -23 -71 -42 -114 -19 -44 -33 -82 -31 -84 3 -2 13 1 24 7 15 8 23 7 32 -4 19 -23 25 -19 59 33 35 55 37 62 17 62 -20 0 -29 16 -42 80 l-11 55 -6 -35z"/>
<path d="M1144 348 c-5 -7 -23 -44 -42 -82 l-33 -69 22 -23 c28 -30 115 -74 146 -74 14 0 23 6 23 15 0 8 5 15 10 15 30 0 -12 136 -63 201 -17 23 -54 33 -63 17z"/>
</g>
<g id="layer108" fill="#2b7a8e" stroke="none">
<path d="M632 1235 c-19 -41 -15 -52 18 -53 17 0 30 1 30 4 0 9 -29 74 -33 74 -2 0 -9 -11 -15 -25z"/>
<path d="M550 1209 c-83 -56 -138 -121 -122 -146 13 -19 73 -44 99 -41 24 3 27 9 43 89 10 47 23 96 29 108 16 28 4 26 -49 -10z"/>
<path d="M690 1227 c0 -7 4 -17 9 -22 5 -6 17 -46 26 -89 19 -92 20 -96 44 -96 29 0 91 29 98 46 9 25 -42 89 -106 133 -67 45 -71 47 -71 28z"/>
</g>
<g id="layer109" fill="#1a8da6" stroke="none">
<path d="M632 1225 c-16 -35 -16 -35 13 -35 28 0 32 17 12 44 -12 17 -14 16 -25 -9z"/>
<path d="M534 1195 c-66 -51 -93 -83 -100 -118 -3 -21 2 -27 40 -41 51 -20 74 -13 82 23 3 14 10 45 15 69 5 24 7 47 4 52 -3 5 -1 11 5 15 15 9 32 45 22 45 -5 0 -36 -20 -68 -45z"/>
<path d="M690 1226 c0 -7 6 -18 13 -24 7 -6 19 -48 26 -92 12 -70 16 -81 36 -86 13 -3 34 0 47 7 12 7 28 13 33 14 13 0 19 40 8 59 -11 19 -144 136 -154 136 -5 0 -9 -6 -9 -14z"/>
</g>
<g id="layer110" fill="#aa614c" stroke="none">
<path d="M396 784 c-18 -17 -21 -50 -7 -59 6 -3 15 4 21 15 14 26 50 26 57 0 7 -26 23 -15 23 16 0 39 -64 58 -94 28z"/>
<path d="M840 791 c-26 -7 -36 -31 -25 -59 6 -15 8 -14 16 6 11 28 45 29 59 2 13 -24 30 -18 30 10 0 21 -26 50 -43 49 -7 -1 -23 -4 -37 -8z"/>
<path d="M416 345 c5 -12 0 -14 -25 -9 -41 9 -48 -12 -23 -69 26 -58 57 -70 88 -33 13 14 32 26 44 26 11 0 20 2 20 5 0 4 -31 75 -37 84 -1 2 -9 -1 -16 -8 -11 -9 -17 -8 -27 4 -16 19 -31 19 -24 0z"/>
<path d="M511 316 c7 -15 15 -23 17 -16 3 7 -3 19 -13 28 -15 16 -16 15 -4 -12z"/>
</g>
<g id="layer111" fill="#c84147" stroke="none">
<path d="M530 1260 c-20 -20 -26 -40 -13 -40 8 0 83 51 83 56 0 13 -53 1 -70 -16z"/>
<path d="M730 1250 c36 -30 67 -40 54 -17 -18 31 -39 47 -63 47 -26 -1 -26 -1 9 -30z"/>
<path d="M100 618 c0 -116 13 -129 39 -41 12 39 21 78 21 87 0 13 -35 36 -56 36 -2 0 -4 -37 -4 -82z"/>
<path d="M1137 688 c-16 -5 -26 -15 -24 -22 2 -6 12 -41 22 -78 10 -38 21 -68 25 -68 4 0 10 14 14 31 8 44 8 149 -1 148 -5 0 -21 -5 -36 -11z"/>
<path d="M0 655 c0 -38 43 -135 60 -135 13 0 13 2 -11 92 -23 84 -49 107 -49 43z"/>
<path d="M1236 643 c-21 -66 -30 -123 -19 -123 14 0 63 108 63 140 0 47 -26 37 -44 -17z"/>
<path d="M138 490 c-25 -26 -29 -36 -24 -63 7 -40 73 -104 89 -88 6 6 10 39 10 74 -1 113 -20 132 -75 77z"/>
<path d="M1075 509 c-11 -16 -18 -124 -11 -153 8 -34 18 -33 61 5 30 27 35 37 35 74 0 37 -5 47 -29 64 -33 23 -47 26 -56 10z"/>
<path d="M2 433 c2 -60 6 -78 18 -78 11 0 14 16 14 75 0 63 -2 75 -17 78 -16 3 -18 -5 -15 -75z"/>
<path d="M1246 501 c-4 -5 -4 -27 0 -49 3 -22 1 -48 -5 -60 -8 -15 -7 -23 5 -33 24 -20 35 6 32 80 -3 60 -17 87 -32 62z"/>
<path d="M72 488 c-21 -26 -25 -67 -8 -93 25 -39 33 -30 30 36 -3 67 -6 76 -22 57z"/>
<path d="M1184 435 c-1 -67 4 -76 26 -50 16 19 16 66 0 94 -18 35 -25 24 -26 -44z"/>
</g>
<g id="layer112" fill="#8c7571" stroke="none">
<path d="M0 994 c0 -214 3 -283 12 -278 6 4 20 -4 33 -20 l22 -27 6 79 c7 89 35 212 48 212 5 0 9 -6 9 -12 0 -7 15 13 32 44 33 62 141 173 158 163 13 -8 13 -1 -1 68 l-12 57 -153 0 -154 0 0 -286z"/>
<path d="M330 1268 c1 -31 32 -145 46 -166 l16 -24 24 35 c29 44 29 48 2 114 -20 49 -24 53 -55 53 -20 0 -33 -5 -33 -12z"/>
<path d="M425 1258 c4 -13 15 -36 26 -53 16 -27 18 -28 25 -10 4 11 13 35 20 53 l13 32 -45 0 c-42 0 -45 -1 -39 -22z"/>
<path d="M795 1263 c4 -10 11 -33 17 -50 12 -43 22 -41 42 7 22 57 21 60 -25 60 -35 0 -40 -3 -34 -17z"/>
<path d="M890 1263 c0 -10 -7 -30 -14 -45 -8 -15 -16 -36 -18 -45 -3 -23 33 -84 47 -80 9 3 34 81 48 155 6 31 6 32 -28 32 -27 0 -35 -4 -35 -17z"/>
<path d="M977 1266 c-21 -53 -18 -149 3 -115 18 28 142 -99 177 -180 11 -26 17 -31 23 -21 5 8 11 12 13 10 7 -8 35 -133 42 -187 6 -43 10 -53 26 -53 18 0 19 11 19 280 l0 280 -149 0 c-117 0 -150 -3 -154 -14z"/>
<path d="M558 1213 c-37 -28 -65 -60 -108 -122 -18 -26 -20 -35 -10 -41 9 -6 26 10 55 48 23 32 54 68 69 82 31 28 51 60 38 60 -5 0 -25 -12 -44 -27z"/>
<path d="M690 1227 c0 -7 23 -35 50 -62 28 -28 63 -67 77 -88 17 -25 30 -34 36 -28 14 14 -45 102 -101 151 -47 42 -62 48 -62 27z"/>
<path d="M605 1151 c-3 -5 -7 -22 -10 -38 -14 -89 -14 -89 50 -85 43 3 55 8 60 23 4 10 3 24 -2 31 -4 7 -6 21 -5 31 2 10 -2 25 -8 33 -14 16 -76 19 -85 5z"/>
<path d="M553 1000 c-106 -11 -168 -36 -221 -86 -25 -24 -43 -46 -40 -49 2 -3 31 0 62 7 64 12 164 0 218 -28 25 -13 28 -20 28 -64 l0 -50 55 0 55 0 0 50 c0 44 3 51 28 64 50 26 154 40 211 29 28 -6 51 -8 51 -6 0 3 -9 17 -19 32 -55 77 -238 120 -428 101z m167 -75 c17 -9 30 -20 30 -25 0 -13 -3 -13 -36 5 -37 19 -77 19 -115 -1 -32 -16 -43 -16 -31 2 23 35 103 45 152 19z"/>
<path d="M370 844 c-70 -13 -90 -25 -90 -52 0 -25 20 -70 20 -46 0 5 6 19 14 30 13 17 13 14 5 -28 -13 -58 -1 -84 42 -93 39 -9 55 5 40 34 -14 26 -36 27 -50 4 -10 -17 -10 -16 -11 2 0 33 20 93 36 110 9 8 32 15 52 15 32 0 41 -6 66 -41 21 -30 27 -48 24 -75 -4 -31 -2 -35 16 -32 19 3 21 11 24 71 l3 68 -34 14 c-38 16 -120 26 -157 19z"/>
<path d="M815 835 c-27 -8 -54 -14 -58 -15 -13 0 -3 -143 11 -148 8 -2 12 12 12 50 0 75 18 98 78 98 26 0 52 -4 58 -8 21 -14 36 -56 37 -104 1 -54 11 -61 30 -20 6 15 17 32 23 37 7 6 15 29 19 51 6 41 5 42 -27 53 -59 19 -131 21 -183 6z"/>
<path d="M796 694 c-9 -22 1 -34 30 -34 26 0 32 18 12 38 -17 17 -35 15 -42 -4z"/>
<path d="M597 671 c-2 -10 -16 -21 -30 -25 -15 -3 -37 -17 -51 -31 -32 -32 -104 -34 -159 -5 -39 21 -43 17 -31 -27 4 -13 23 -31 48 -43 42 -20 42 -20 111 -1 39 11 71 18 73 16 6 -5 -67 -35 -85 -35 -8 0 -12 -4 -9 -9 3 -5 37 -12 76 -16 49 -5 73 -12 79 -24 9 -15 10 -15 16 2 6 13 19 17 55 17 45 0 48 -1 54 -31 3 -17 6 -55 6 -83 1 -43 2 -48 12 -31 6 11 12 50 12 88 1 66 2 68 30 75 l29 8 -41 12 c-71 21 -55 31 19 12 39 -10 79 -16 88 -13 59 19 71 27 82 60 6 19 9 37 6 39 -3 3 -22 -4 -43 -15 -57 -31 -127 -28 -161 5 -14 14 -36 29 -49 34 -13 5 -24 16 -24 25 0 12 -12 15 -54 15 -44 0 -55 -3 -59 -19z"/>
<path d="M1265 551 c-3 -5 -1 -12 5 -16 5 -3 10 1 10 9 0 18 -6 21 -15 7z"/>
<path d="M89 347 c-34 -17 -88 -122 -88 -172 0 -46 18 -75 45 -75 24 0 113 51 137 78 18 20 18 22 -18 96 -20 42 -40 78 -44 80 -4 3 -18 -1 -32 -7z"/>
<path d="M416 345 c5 -12 0 -14 -25 -9 -41 9 -48 -12 -23 -69 23 -53 54 -68 83 -41 10 9 19 23 19 29 0 8 10 10 25 7 14 -2 25 -2 25 1 0 6 -30 76 -37 86 -1 2 -9 -1 -16 -8 -11 -9 -17 -8 -27 4 -16 19 -31 19 -24 0z"/>
<path d="M1142 348 c-7 -7 -12 -17 -12 -24 0 -6 -14 -37 -31 -69 l-30 -57 21 -23 c27 -28 118 -75 148 -75 13 0 22 6 22 15 0 8 5 15 10 15 30 0 -12 136 -63 201 -17 23 -51 31 -65 17z"/>
<path d="M511 320 c14 -31 19 -36 19 -24 0 6 -7 19 -16 30 -14 18 -14 18 -3 -6z"/>
<path d="M0 298 c0 -17 1 -29 3 -27 2 2 11 16 20 32 17 26 17 27 -3 27 -16 0 -20 -7 -20 -32z"/>
<path d="M1240 323 c0 -5 9 -21 20 -38 l20 -30 0 38 c0 30 -4 37 -20 37 -11 0 -20 -3 -20 -7z"/>
<path d="M950 172 c-172 -73 -390 -78 -584 -14 -77 25 -79 25 -93 6 -21 -29 -27 -63 -14 -90 14 -31 36 -31 57 1 20 30 38 33 29 5 -4 -12 -1 -27 5 -35 10 -12 10 -18 0 -30 -11 -13 -3 -15 60 -15 63 0 72 2 77 20 3 11 10 20 15 20 6 0 8 -9 5 -20 -3 -13 0 -20 9 -20 8 0 14 7 14 15 0 8 5 15 10 15 6 0 10 -7 10 -15 0 -12 17 -15 90 -15 73 0 90 3 90 15 0 8 5 15 10 15 6 0 10 -7 10 -15 0 -8 5 -15 11 -15 6 0 8 9 4 20 -4 12 -2 20 5 20 7 0 14 -9 17 -20 5 -18 14 -20 82 -20 69 1 74 2 57 15 -18 14 -18 16 -3 33 12 13 14 21 6 29 -7 7 -7 13 -1 17 5 3 20 -6 32 -19 30 -32 36 -31 55 5 14 27 14 33 1 58 -27 49 -29 50 -66 34z"/>
<path d="M190 155 c-36 -38 -124 -78 -160 -73 -26 4 -30 1 -30 -19 0 -22 3 -23 70 -23 38 0 91 5 117 10 l48 11 -2 52 c0 29 -2 55 -2 60 -2 14 -18 7 -41 -18z"/>
<path d="M1040 165 c-8 -10 -8 -19 0 -34 6 -11 8 -31 4 -45 -5 -22 -2 -25 46 -35 28 -6 82 -11 120 -11 66 0 70 1 70 23 0 20 -4 23 -32 19 -41 -4 -91 17 -151 62 -38 29 -48 32 -57 21z"/>
<path d="M228 42 c-20 -4 -22 -11 -9 -30 5 -8 22 -12 46 -10 l37 3 -29 20 c-15 12 -36 19 -45 17z"/>
</g>
<g id="layer113" fill="#f64c50" stroke="none">
<path d="M530 1255 c-21 -25 -1 -31 23 -7 17 18 18 22 5 22 -8 0 -21 -7 -28 -15z"/>
<path d="M745 1245 c33 -27 42 -26 25 4 -6 12 -20 21 -33 21 -21 -1 -20 -2 8 -25z"/>
<path d="M0 660 c0 -29 48 -140 61 -140 7 0 -15 103 -31 145 -13 34 -30 32 -30 -5z"/>
<path d="M101 633 c1 -32 4 -71 8 -88 6 -27 9 -22 30 49 25 83 22 95 -21 96 -15 0 -18 -9 -17 -57z"/>
<path d="M1131 681 c-12 -8 -12 -19 4 -78 10 -37 21 -72 25 -76 8 -9 22 141 14 154 -7 11 -25 11 -43 0z"/>
<path d="M1230 609 c-12 -44 -19 -83 -16 -86 10 -10 56 97 56 132 0 59 -17 40 -40 -46z"/>
<path d="M151 495 c-42 -36 -43 -84 -2 -126 16 -16 37 -29 46 -29 15 0 17 10 14 80 -5 97 -15 111 -58 75z"/>
<path d="M1075 498 c-14 -64 -9 -158 8 -158 29 0 68 45 74 86 5 36 2 43 -27 67 -38 33 -48 34 -55 5z"/>
<path d="M7 503 c-11 -10 -8 -131 3 -138 20 -12 29 5 18 35 -7 21 -7 39 0 59 8 22 7 32 -2 40 -7 6 -16 8 -19 4z"/>
<path d="M1255 502 c-16 -11 -14 -142 2 -142 10 0 13 20 13 75 0 41 -1 75 -2 75 -2 0 -7 -4 -13 -8z"/>
<path d="M66 474 c-13 -33 -3 -94 14 -94 5 0 8 25 7 55 -2 55 -9 69 -21 39z"/>
<path d="M1189 437 c-4 -59 -1 -65 19 -45 16 16 15 60 -2 83 -13 18 -14 14 -17 -38z"/>
</g>
<g id="layer114" fill="#a0857d" stroke="none">
<path d="M0 1000 c0 -278 0 -280 21 -280 12 0 23 -8 26 -20 9 -34 23 -11 23 38 1 58 33 209 48 224 9 9 12 7 12 -7 1 -12 11 -1 26 30 28 54 140 175 162 175 8 0 12 6 9 14 -3 7 -9 34 -12 60 l-7 46 -154 0 -154 0 0 -280z"/>
<path d="M333 1258 c3 -13 10 -49 17 -80 6 -32 19 -67 28 -78 17 -21 17 -20 41 23 l24 44 -21 45 c-12 24 -22 50 -22 56 0 7 -15 12 -36 12 -32 0 -36 -2 -31 -22z"/>
<path d="M434 1245 c8 -19 19 -43 25 -52 9 -17 10 -17 16 2 4 11 13 35 21 53 l14 32 -45 0 -45 0 14 -35z"/>
<path d="M790 1278 c0 -2 8 -25 19 -52 l19 -50 21 42 c29 56 27 62 -19 62 -22 0 -40 -1 -40 -2z"/>
<path d="M887 1253 c-2 -16 -11 -43 -18 -61 -12 -28 -11 -36 5 -67 11 -19 22 -35 26 -35 11 0 28 48 44 123 l14 67 -33 0 c-28 0 -33 -4 -38 -27z"/>
<path d="M970 1224 c-12 -58 -7 -101 10 -75 6 11 13 10 37 -7 46 -33 113 -110 132 -152 13 -30 20 -37 29 -28 16 16 29 -23 50 -144 14 -81 20 -98 34 -98 17 0 18 19 18 280 l0 280 -149 0 -150 0 -11 -56z"/>
<path d="M557 1213 c-35 -26 -127 -139 -127 -155 0 -23 33 -2 63 40 20 26 50 61 67 77 35 33 56 65 42 65 -5 0 -25 -12 -45 -27z"/>
<path d="M614 1152 c-7 -4 -15 -33 -19 -64 l-7 -58 55 0 c48 0 57 3 63 22 4 14 1 25 -8 32 -11 8 -12 15 -5 28 21 33 -41 65 -79 40z"/>
<path d="M475 987 c-69 -18 -133 -55 -164 -96 l-26 -34 35 9 c64 16 181 9 232 -13 46 -21 47 -23 50 -70 l3 -48 47 -3 47 -3 7 52 c7 49 9 52 50 71 54 23 157 34 207 20 20 -6 37 -7 37 -3 0 19 -82 84 -131 103 -45 18 -79 22 -199 24 -94 2 -163 -1 -195 -9z m251 -63 c34 -16 45 -34 22 -34 -7 1 -24 7 -38 15 -33 19 -81 19 -106 0 -24 -18 -47 -19 -42 -2 13 36 106 48 164 21z"/>
<path d="M323 833 c-33 -6 -46 -28 -38 -64 l7 -32 15 32 c21 42 26 34 13 -23 -10 -47 1 -86 25 -86 5 0 20 -3 33 -7 21 -5 23 -3 20 23 -4 37 -34 45 -47 12 -9 -21 -10 -20 -10 12 0 19 8 54 19 78 18 40 21 42 63 42 40 0 47 -4 71 -38 17 -25 26 -51 26 -76 0 -31 3 -37 16 -32 9 3 18 6 20 6 2 0 4 29 4 66 0 65 0 65 -35 80 -32 13 -148 17 -202 7z"/>
<path d="M782 825 l-33 -14 3 -67 c2 -43 8 -69 16 -72 8 -2 12 12 12 50 0 78 17 98 85 98 51 0 55 -2 71 -32 10 -18 18 -55 18 -81 1 -47 1 -47 18 -27 9 12 14 28 11 36 -3 8 -2 14 3 13 25 -4 32 5 36 42 2 26 -1 44 -10 52 -22 18 -191 20 -230 2z"/>
<path d="M796 693 c-7 -18 9 -33 37 -33 20 0 21 4 7 31 -13 23 -36 25 -44 2z"/>
<path d="M600 675 c0 -9 -12 -21 -27 -27 -16 -7 -41 -23 -56 -35 -37 -30 -118 -32 -164 -3 -28 17 -33 17 -33 4 0 -28 20 -54 59 -74 38 -19 39 -19 107 0 37 11 70 18 72 15 7 -6 -63 -35 -85 -35 -43 -1 14 -19 79 -25 53 -5 68 -11 68 -23 0 -14 1 -14 13 0 6 9 31 18 55 21 39 5 44 3 53 -20 5 -13 9 -47 9 -74 0 -27 5 -49 10 -49 10 0 14 29 15 110 0 38 3 45 25 50 22 5 19 8 -24 24 -68 26 -50 30 33 7 66 -18 74 -19 116 -5 36 13 46 22 55 50 7 20 10 37 8 40 -2 2 -22 -5 -43 -16 -55 -28 -126 -27 -162 4 -15 12 -38 28 -50 35 -13 6 -23 18 -23 26 0 11 -13 15 -55 15 -43 0 -55 -3 -55 -15z"/>
<path d="M1 544 c0 -11 3 -14 6 -6 3 7 2 16 -1 19 -3 4 -6 -2 -5 -13z"/>
<path d="M420 347 c0 -13 -6 -15 -29 -11 -39 8 -45 -14 -18 -68 17 -33 29 -44 49 -46 21 -3 30 2 39 21 8 18 17 23 35 19 29 -5 29 -2 3 50 -15 29 -24 37 -32 29 -8 -8 -16 -6 -29 6 -17 15 -18 15 -18 0z"/>
<path d="M1150 344 c-7 -8 -28 -45 -46 -81 -40 -78 -38 -82 55 -132 69 -37 75 -37 101 -11 25 25 25 56 0 115 -40 92 -86 139 -110 109z"/>
<path d="M510 321 c0 -6 4 -13 10 -16 6 -3 7 1 4 9 -7 18 -14 21 -14 7z"/>
<path d="M1240 325 c0 -2 9 -19 20 -37 l20 -33 0 38 c0 30 -4 37 -20 37 -11 0 -20 -2 -20 -5z"/>
<path d="M265 150 c-18 -35 -19 -59 -1 -83 18 -23 31 -21 50 8 20 31 40 33 33 3 -4 -12 -1 -28 5 -35 7 -9 7 -17 -2 -28 -11 -13 -3 -15 58 -15 62 0 71 2 77 20 9 27 25 25 25 -2 1 -21 2 -21 11 -5 12 21 29 22 29 2 0 -12 17 -15 90 -15 75 0 88 2 84 15 -4 9 0 15 10 15 9 0 16 -7 16 -15 0 -8 4 -15 9 -15 5 0 7 9 4 20 -3 12 0 20 7 20 6 0 14 -9 17 -20 5 -18 14 -20 75 -20 62 0 69 2 58 15 -10 12 -10 18 0 30 7 8 10 21 7 30 -10 25 9 25 33 0 30 -32 36 -31 54 3 12 23 12 32 1 58 -19 45 -29 48 -91 25 -72 -27 -210 -51 -293 -51 -82 1 -197 21 -276 49 -32 11 -63 21 -67 21 -4 0 -14 -13 -23 -30z"/>
<path d="M1042 168 c-7 -7 -7 -19 -1 -35 5 -13 6 -35 3 -48 -5 -21 -2 -25 33 -32 21 -4 74 -8 118 -8 76 0 80 1 83 23 3 21 1 22 -17 13 -27 -15 -114 18 -168 64 -29 24 -43 31 -51 23z"/>
<path d="M190 149 c-44 -35 -122 -71 -157 -72 -25 -1 -33 -5 -33 -19 0 -15 9 -18 65 -18 35 0 87 5 114 11 48 10 50 12 50 42 0 18 1 41 3 51 4 27 -13 29 -42 5z"/>
<path d="M217 33 c-14 -13 17 -33 52 -33 l36 0 -25 20 c-25 20 -51 25 -63 13z"/>
<path d="M1025 20 l-18 -20 136 0 c76 0 137 4 137 9 0 4 -46 11 -102 13 -57 3 -110 8 -119 12 -9 4 -22 -1 -34 -14z"/>
</g>
<g id="layer115" fill="#5d9ead" stroke="none">
<path d="M557 1212 c-51 -37 -130 -144 -116 -157 7 -7 19 1 37 25 15 19 51 60 80 92 28 32 52 60 52 63 0 10 -16 3 -53 -23z"/>
<path d="M690 1231 c0 -6 32 -45 70 -87 39 -43 70 -81 70 -86 0 -4 7 -8 15 -8 21 0 19 7 -15 59 -42 66 -140 152 -140 122z"/>
</g>
<g id="layer116" fill="#b37a87" stroke="none">
<path d="M490 990 c-66 -14 -149 -60 -179 -99 -23 -31 -24 -34 -6 -27 47 18 151 19 211 1 32 -9 64 -21 71 -26 6 -6 14 -32 18 -60 l7 -49 43 0 42 0 7 49 c3 27 12 53 19 59 31 26 132 45 207 38 l75 -6 -46 44 c-64 62 -121 78 -289 82 -74 1 -155 -1 -180 -6z m240 -65 c32 -17 42 -41 13 -32 -94 31 -103 32 -138 13 -42 -23 -60 -12 -26 15 29 24 109 26 151 4z m-73 -102 c-4 -3 -7 0 -7 7 0 7 3 10 7 7 3 -4 3 -10 0 -14z"/>
<path d="M90 347 c-35 -18 -90 -123 -90 -174 0 -24 5 -43 10 -43 6 0 10 -7 10 -15 0 -8 8 -15 18 -15 27 0 115 47 141 74 l23 24 -38 77 c-21 42 -40 78 -44 80 -3 2 -17 -2 -30 -8z"/>
<path d="M420 340 c0 -6 -12 -9 -27 -8 -23 3 -28 -1 -31 -22 -1 -14 7 -40 18 -57 25 -41 65 -45 81 -10 8 18 17 23 35 19 l23 -4 -17 41 c-16 39 -42 56 -42 29 0 -7 -5 -5 -11 5 -11 19 -29 23 -29 7z"/>
<path d="M1143 338 c-4 -7 -22 -42 -40 -77 -30 -59 -31 -66 -17 -82 17 -19 126 -79 143 -79 21 0 51 40 51 68 0 28 -49 134 -77 164 -19 21 -48 24 -60 6z"/>
<path d="M510 320 c0 -7 3 -10 7 -7 3 4 3 10 0 14 -4 3 -7 0 -7 -7z"/>
</g>
<g id="layer117" fill="#ac9c98" stroke="none">
<path d="M0 1000 c0 -278 0 -280 21 -280 13 0 23 -8 27 -22 5 -21 6 -21 13 -2 4 10 8 34 8 52 1 43 30 181 43 206 8 14 12 16 18 6 6 -10 13 -2 24 24 18 43 142 176 164 176 8 0 12 6 9 14 -3 7 -9 34 -12 60 l-7 46 -154 0 -154 0 0 -280z"/>
<path d="M330 1273 c0 -29 40 -168 52 -179 11 -12 17 -7 37 30 l24 43 -21 45 c-12 24 -22 50 -22 56 0 7 -15 12 -35 12 -19 0 -35 -3 -35 -7z"/>
<path d="M430 1265 c0 -8 7 -30 17 -49 16 -35 33 -39 33 -8 0 9 7 29 14 45 l15 27 -40 0 c-28 0 -39 -4 -39 -15z"/>
<path d="M807 1235 c8 -25 18 -45 22 -45 8 0 41 65 41 80 0 6 -18 10 -39 10 l-40 0 16 -45z"/>
<path d="M887 1253 c-2 -16 -11 -42 -18 -60 -11 -28 -11 -36 6 -67 11 -20 23 -36 26 -36 9 0 24 44 43 128 l14 62 -33 0 c-28 0 -33 -4 -38 -27z"/>
<path d="M970 1224 c-12 -57 -7 -101 9 -75 6 10 14 10 27 3 32 -17 122 -118 141 -156 10 -21 23 -35 32 -34 18 3 45 -82 56 -179 6 -52 10 -63 26 -63 18 0 19 12 19 280 l0 280 -149 0 -150 0 -11 -56z"/>
<path d="M526 1177 c-64 -66 -95 -112 -82 -124 5 -5 16 3 25 17 9 14 44 55 78 92 35 37 63 70 63 73 0 18 -30 -3 -84 -58z"/>
<path d="M690 1235 c0 -4 28 -37 61 -73 34 -37 66 -77 72 -89 9 -21 37 -32 37 -15 0 17 -107 145 -137 164 -18 11 -33 17 -33 13z"/>
<path d="M611 1151 c-8 -5 -12 -19 -9 -35 3 -14 1 -26 -3 -26 -5 0 -9 -13 -9 -30 0 -30 1 -30 54 -30 47 0 56 3 62 22 4 15 1 25 -10 34 -11 8 -13 14 -7 19 15 9 14 21 -5 39 -17 18 -51 21 -73 7z"/>
<path d="M493 990 c-69 -14 -125 -45 -168 -90 -27 -29 -33 -40 -20 -35 46 17 152 17 211 0 32 -9 64 -21 71 -26 6 -6 14 -32 18 -60 l7 -49 43 0 42 0 7 49 c3 27 12 53 19 59 31 26 132 45 207 39 l75 -6 -46 44 c-65 61 -122 77 -289 81 -74 1 -154 -1 -177 -6z m237 -65 c32 -17 42 -41 13 -32 -94 31 -103 32 -138 13 -42 -23 -60 -12 -26 15 29 24 109 26 151 4z m-73 -107 c-3 -8 -6 -5 -6 6 -1 11 2 17 5 13 3 -3 4 -12 1 -19z"/>
<path d="M313 826 c-33 -15 -38 -26 -24 -59 6 -17 8 -16 19 8 18 39 24 26 13 -29 -10 -54 5 -79 52 -90 26 -6 28 -5 25 21 -4 35 -31 41 -47 11 -10 -20 -11 -15 -7 31 8 77 26 101 80 101 39 0 46 -4 70 -38 17 -25 26 -51 26 -76 0 -31 3 -37 16 -32 9 3 18 6 20 6 2 0 4 29 4 65 0 56 -3 66 -22 77 -35 19 -187 21 -225 4z"/>
<path d="M790 827 c-35 -12 -35 -12 -38 -78 -2 -53 0 -68 13 -72 12 -5 15 3 15 43 0 27 5 61 12 75 10 23 17 25 70 25 l59 0 21 -46 c12 -27 18 -60 16 -80 -3 -26 -1 -31 9 -22 7 6 13 22 13 36 0 14 3 22 7 19 13 -14 33 17 33 53 0 34 -4 39 -31 49 -42 14 -154 13 -199 -2z"/>
<path d="M799 694 c-10 -13 -10 -17 2 -25 16 -10 49 -12 49 -3 0 12 -21 44 -29 44 -5 0 -14 -7 -22 -16z"/>
<path d="M600 674 c0 -8 -15 -21 -33 -29 -18 -7 -41 -23 -51 -34 -26 -29 -117 -29 -163 -1 -35 21 -39 17 -23 -24 21 -55 96 -68 199 -33 60 21 50 2 -11 -21 -58 -22 -53 -26 45 -38 31 -3 57 -11 57 -16 0 -7 4 -7 13 0 6 5 31 13 54 17 40 6 44 5 53 -20 5 -14 10 -44 10 -65 0 -21 5 -42 10 -45 10 -6 13 16 14 100 1 34 4 40 25 43 19 3 15 8 -28 27 -28 13 -51 26 -51 28 0 2 30 -4 67 -14 37 -11 79 -19 94 -19 44 0 88 20 94 43 19 64 21 60 -24 38 -56 -29 -141 -29 -167 0 -10 12 -31 27 -46 35 -16 8 -28 21 -28 29 0 11 -13 15 -55 15 -43 0 -55 -3 -55 -16z"/>
<path d="M0 550 c0 -7 3 -10 7 -7 3 4 3 10 0 14 -4 3 -7 0 -7 -7z"/>
<path d="M1270 550 c0 -7 3 -10 7 -7 3 4 3 10 0 14 -4 3 -7 0 -7 -7z"/>
<path d="M430 500 c0 -7 3 -10 7 -7 3 4 3 10 0 14 -4 3 -7 0 -7 -7z"/>
<path d="M91 347 c-36 -18 -91 -123 -91 -174 0 -24 5 -43 10 -43 6 0 10 -7 10 -15 0 -8 6 -15 13 -15 21 0 132 58 151 79 15 17 15 21 -14 76 -16 31 -30 63 -30 70 0 24 -24 35 -49 22z"/>
<path d="M420 339 c0 -5 -8 -9 -17 -8 -49 5 -57 -22 -23 -78 25 -41 66 -46 80 -9 7 18 14 23 29 19 24 -6 25 -1 9 44 -12 32 -38 46 -38 21 0 -7 -5 -5 -11 5 -11 19 -29 23 -29 6z"/>
<path d="M1145 340 c-4 -6 -21 -40 -40 -76 -31 -64 -32 -67 -15 -84 21 -21 96 -65 127 -74 29 -9 63 25 63 62 0 28 -49 134 -77 164 -18 20 -48 24 -58 8z"/>
<path d="M0 298 l1 -33 14 25 c18 32 18 40 0 40 -10 0 -15 -10 -15 -32z"/>
<path d="M1255 300 c9 -16 18 -30 20 -30 3 0 5 14 5 30 0 23 -4 30 -20 30 -20 0 -20 -1 -5 -30z"/>
<path d="M263 146 c-13 -29 -14 -39 -3 -65 15 -37 20 -38 50 -6 27 29 42 32 39 8 -1 -10 1 -26 6 -36 4 -10 2 -23 -5 -32 -11 -13 -3 -15 58 -15 62 0 71 2 77 20 9 27 25 25 26 -2 1 -17 2 -19 6 -6 5 22 33 24 33 3 0 -12 16 -15 85 -15 69 0 85 3 85 15 0 8 7 15 15 15 8 0 15 -7 15 -15 0 -8 4 -15 9 -15 5 0 7 9 4 20 -4 14 0 20 11 20 9 0 16 -8 16 -20 0 -18 7 -20 71 -20 62 0 70 2 59 15 -10 12 -10 18 0 30 6 8 9 23 5 35 -9 27 3 25 38 -8 28 -26 29 -27 43 -8 18 26 18 50 -2 87 -11 22 -21 29 -32 25 -134 -44 -198 -58 -292 -63 -115 -6 -240 12 -334 48 -28 10 -54 19 -59 19 -4 0 -15 -15 -24 -34z"/>
<path d="M1042 168 c-8 -8 -8 -17 -1 -30 6 -11 8 -32 4 -48 -6 -28 -6 -28 62 -40 37 -6 91 -10 118 -8 44 3 50 6 53 26 3 21 1 22 -16 13 -33 -17 -113 14 -175 69 -25 21 -37 26 -45 18z"/>
<path d="M183 145 c-48 -38 -140 -77 -163 -70 -16 5 -20 2 -20 -16 0 -21 2 -22 93 -16 127 9 137 12 136 51 -1 17 1 40 3 50 5 28 -13 29 -49 1z"/>
<path d="M217 33 c-14 -13 17 -33 51 -33 l35 0 -26 20 c-26 20 -48 25 -60 13z"/>
<path d="M1025 20 l-18 -20 136 0 c76 0 137 4 137 9 0 5 -46 11 -102 13 -57 3 -110 8 -119 12 -9 4 -22 -1 -34 -14z"/>
<path d="M0 10 c0 -6 33 -10 80 -10 47 0 80 4 80 10 0 6 -33 10 -80 10 -47 0 -80 -4 -80 -10z"/>
</g>
<g id="layer118" fill="#cda3a0" stroke="none">
<path d="M617 1153 c-15 -4 -18 -12 -15 -34 3 -16 1 -29 -4 -29 -4 0 -8 -13 -8 -30 0 -30 1 -30 55 -30 30 0 55 2 55 4 0 2 3 11 6 19 3 8 -3 23 -13 32 -13 13 -14 20 -5 23 16 5 15 17 -4 36 -15 16 -32 18 -67 9z"/>
<path d="M484 986 c-34 -8 -75 -21 -90 -29 -37 -19 -117 -103 -89 -92 39 14 141 17 197 6 77 -16 99 -36 105 -94 l6 -47 42 0 42 0 5 45 c3 25 11 52 18 60 24 29 118 48 205 42 l80 -5 -48 44 c-30 27 -68 50 -100 60 -72 22 -292 28 -373 10z m246 -61 c32 -17 42 -41 13 -32 -89 29 -98 30 -136 12 -45 -21 -62 -11 -28 16 29 24 109 26 151 4z m-73 -107 c-3 -8 -6 -5 -6 6 -1 11 2 17 5 13 3 -3 4 -12 1 -19z"/>
<path d="M320 827 c-19 -6 -35 -18 -34 -24 5 -62 4 -60 20 -30 8 15 19 27 25 27 6 0 6 -7 -1 -19 -12 -24 -13 -98 -1 -105 5 -3 11 17 13 44 7 74 29 100 82 100 39 0 46 -4 72 -41 19 -28 27 -51 26 -75 -2 -19 1 -34 6 -34 21 0 32 29 32 82 0 54 -2 59 -27 70 -41 17 -172 20 -213 5z"/>
<path d="M790 826 c-35 -13 -35 -13 -38 -78 -2 -49 1 -67 11 -71 11 -4 14 6 14 47 0 82 12 96 83 96 53 0 61 -3 76 -26 11 -15 18 -47 18 -79 1 -41 4 -51 14 -43 6 6 12 22 12 36 0 14 3 22 7 19 11 -12 32 27 33 60 0 29 -4 33 -37 42 -50 14 -150 13 -193 -3z"/>
<path d="M600 675 c0 -9 -12 -21 -27 -27 -16 -7 -41 -23 -56 -37 -23 -21 -38 -26 -76 -25 -26 1 -63 9 -80 19 -18 9 -35 15 -37 12 -11 -11 18 -58 45 -72 39 -20 66 -19 142 5 35 10 65 17 67 15 6 -6 -75 -45 -95 -45 -39 -1 13 -17 72 -23 33 -3 61 -10 63 -16 2 -5 15 -3 30 5 15 8 41 14 58 14 34 0 44 -16 44 -77 0 -70 15 -66 20 7 5 69 7 75 30 80 l25 6 -29 8 c-29 7 -79 36 -73 42 1 2 31 -6 66 -16 108 -34 171 -22 189 35 12 40 6 43 -40 19 -17 -9 -53 -17 -79 -18 -39 -1 -53 4 -76 25 -15 15 -38 32 -50 38 -13 6 -23 18 -23 26 0 11 -13 15 -55 15 -43 0 -55 -3 -55 -15z"/>
<path d="M52 303 c-17 -27 -36 -61 -41 -76 -14 -36 -14 -97 -1 -97 6 0 10 -7 10 -15 0 -8 6 -15 13 -15 21 0 132 58 151 79 15 17 15 21 -12 72 -16 30 -31 64 -34 77 -4 15 -14 22 -31 22 -19 0 -32 -12 -55 -47z"/>
<path d="M420 337 c0 -13 -6 -15 -32 -10 -31 6 -31 6 -24 -27 15 -76 68 -106 91 -52 8 17 16 21 33 17 25 -6 26 -3 10 42 -12 34 -22 41 -33 22 -5 -7 -14 -4 -26 7 -17 15 -19 16 -19 1z"/>
<path d="M1145 340 c-4 -6 -21 -40 -40 -76 -31 -64 -32 -67 -15 -84 21 -21 96 -65 127 -74 27 -9 63 24 63 57 0 25 -40 115 -71 158 -20 29 -52 38 -64 19z"/>
</g>
<g id="layer119" fill="#c9b4ac" stroke="none">
<path d="M0 1000 c0 -271 1 -280 20 -280 10 0 23 -8 29 -17 7 -14 10 -10 15 22 30 196 49 270 63 237 3 -9 17 7 35 39 31 54 133 159 154 159 8 0 8 14 0 58 l-12 57 -152 3 -152 3 0 -281z"/>
<path d="M335 1258 c3 -13 9 -44 15 -69 13 -62 27 -99 39 -99 5 0 19 16 32 36 l22 36 -22 44 c-11 25 -21 51 -21 59 0 10 -11 15 -35 15 -32 0 -35 -2 -30 -22z"/>
<path d="M430 1263 c1 -29 38 -91 43 -73 17 50 27 83 27 86 0 2 -16 4 -35 4 -27 0 -35 -4 -35 -17z"/>
<path d="M894 1263 c-3 -10 -12 -33 -20 -51 -8 -18 -14 -39 -14 -47 0 -17 32 -75 42 -75 9 0 34 85 43 144 7 45 7 46 -19 46 -17 0 -29 -7 -32 -17z"/>
<path d="M971 1224 c-7 -36 -7 -62 -1 -73 6 -9 10 -11 10 -3 0 27 30 9 91 -55 36 -38 71 -83 78 -101 9 -21 19 -31 27 -28 8 3 18 -2 23 -12 12 -23 41 -167 41 -203 0 -22 5 -29 20 -29 20 0 20 7 20 280 l0 280 -149 0 -148 0 -12 -56z"/>
<path d="M529 1180 c-67 -69 -98 -115 -85 -127 5 -5 15 3 24 17 9 14 43 53 75 87 33 34 57 68 55 75 -3 8 -29 -12 -69 -52z"/>
<path d="M616 1153 c-14 -4 -17 -11 -12 -33 3 -17 1 -30 -6 -32 -7 -3 -9 -14 -4 -31 6 -25 10 -27 56 -27 28 0 50 2 50 4 0 2 3 11 6 19 3 8 -3 23 -13 32 -12 13 -14 20 -6 22 7 3 9 12 6 21 -11 30 -31 37 -77 25z"/>
<path d="M484 986 c-34 -8 -75 -21 -90 -29 -36 -19 -118 -104 -89 -92 41 17 162 17 218 1 66 -19 78 -32 85 -91 l5 -45 43 0 44 0 0 38 c0 21 7 47 15 60 24 34 113 55 209 50 l80 -5 -46 42 c-26 24 -69 49 -99 59 -73 25 -290 31 -375 12z m249 -63 c30 -15 38 -39 10 -30 -89 29 -98 30 -136 12 -41 -19 -57 -15 -37 10 28 34 104 38 163 8z m-69 -104 c-3 -5 -10 -7 -15 -3 -5 3 -7 10 -3 15 3 5 10 7 15 3 5 -3 7 -10 3 -15z"/>
<path d="M320 827 c-19 -6 -35 -18 -34 -24 5 -62 4 -60 20 -30 19 35 37 36 24 1 -13 -33 -13 -91 0 -99 6 -4 10 9 10 32 0 78 51 131 109 116 32 -8 75 -80 73 -119 -2 -19 1 -34 6 -34 21 0 32 29 32 82 0 54 -2 59 -27 70 -41 17 -172 20 -213 5z"/>
<path d="M790 826 c-35 -13 -35 -13 -38 -78 -2 -47 1 -67 10 -71 10 -3 14 8 14 47 1 71 15 93 61 98 82 10 109 -13 120 -100 6 -52 23 -63 23 -15 0 15 3 23 7 20 11 -12 32 27 33 60 0 29 -4 33 -37 42 -50 14 -150 13 -193 -3z"/>
<path d="M356 695 c-8 -22 1 -35 25 -35 15 0 20 6 17 22 -4 27 -33 36 -42 13z"/>
<path d="M804 695 c-7 -17 10 -35 33 -35 9 0 10 7 4 22 -10 28 -29 35 -37 13z"/>
<path d="M600 675 c0 -9 -12 -21 -27 -27 -16 -7 -41 -23 -56 -37 -34 -31 -103 -34 -155 -7 -19 10 -36 16 -38 13 -11 -11 18 -58 45 -72 39 -20 62 -19 140 5 36 11 67 18 69 15 6 -6 -75 -45 -94 -45 -42 0 3 -15 63 -21 37 -4 69 -12 71 -18 2 -7 11 -6 25 4 12 8 38 15 58 15 40 0 48 -13 49 -75 0 -16 5 -37 10 -45 7 -10 10 7 10 58 0 72 0 72 28 73 24 0 23 2 -13 15 -22 8 -47 22 -55 31 -14 14 -13 15 5 9 86 -31 142 -39 187 -27 39 11 47 18 56 48 12 39 16 39 -68 8 -53 -19 -99 -13 -126 16 -10 12 -31 27 -46 35 -16 8 -28 21 -28 29 0 11 -13 15 -55 15 -43 0 -55 -3 -55 -15z"/>
<path d="M52 303 c-57 -88 -67 -148 -32 -185 l19 -21 54 27 c30 14 66 37 80 50 l26 24 -29 58 c-16 33 -32 67 -34 77 -11 35 -52 20 -84 -30z"/>
<path d="M0 303 c0 -14 1 -24 3 -22 1 2 8 11 15 20 10 14 10 18 -3 23 -11 4 -15 -1 -15 -21z"/>
<path d="M450 313 c0 -4 5 -15 10 -23 8 -13 10 -13 10 2 0 9 -4 20 -10 23 -5 3 -10 3 -10 -2z"/>
<path d="M266 145 c-18 -37 -15 -65 8 -84 9 -8 19 -4 36 14 28 29 42 32 39 8 -1 -10 1 -26 6 -36 4 -10 2 -23 -5 -32 -11 -13 -3 -15 58 -15 61 0 70 2 75 20 7 27 27 25 28 -2 l0 -23 10 23 c9 24 29 22 29 -4 0 -11 18 -14 85 -14 67 0 85 3 85 14 0 26 20 28 29 4 l10 -23 0 23 c1 28 31 30 31 2 0 -18 7 -20 71 -20 62 0 70 2 59 15 -7 9 -9 22 -5 32 5 10 7 26 6 36 -3 24 8 21 42 -11 28 -26 29 -27 43 -8 18 25 18 50 -1 86 -18 35 -25 36 -67 14 -50 -26 -205 -54 -300 -54 -98 0 -208 19 -288 49 -30 12 -58 21 -61 21 -4 0 -14 -16 -23 -35z"/>
<path d="M200 155 c-22 -27 -153 -86 -177 -80 -18 4 -23 1 -23 -15 0 -17 7 -20 52 -20 28 0 79 5 113 11 l62 11 0 36 c0 20 2 43 4 51 6 20 -16 24 -31 6z"/>
<path d="M1044 115 l1 -54 66 -11 c36 -6 88 -10 115 -8 42 3 49 6 52 26 3 21 1 22 -16 11 -25 -16 -89 7 -162 57 -27 19 -51 34 -54 34 -2 0 -3 -25 -2 -55z"/>
<path d="M217 33 c-13 -12 16 -33 46 -33 29 0 30 0 12 20 -18 20 -46 26 -58 13z"/>
<path d="M1020 15 c-11 -13 2 -15 124 -15 75 0 136 4 136 9 0 5 -24 8 -52 8 -29 -1 -85 2 -124 6 -58 7 -73 5 -84 -8z"/>
</g>
<g id="layer120" fill="#c2c2ce" stroke="none">
<path d="M0 1000 c0 -271 1 -280 20 -280 10 0 23 -8 29 -17 7 -13 11 -3 16 42 7 63 19 125 36 188 7 27 14 37 25 33 9 -4 21 9 35 37 24 45 133 157 154 157 13 0 13 5 -6 83 l-10 37 -149 0 -150 0 0 -280z"/>
<path d="M337 1248 c15 -76 39 -152 49 -155 6 -2 21 13 34 34 l22 37 -21 42 c-12 22 -21 49 -21 58 0 12 -9 16 -35 16 -34 0 -34 -1 -28 -32z"/>
<path d="M430 1265 c0 -24 30 -76 39 -70 5 2 11 15 14 27 2 13 8 31 12 41 6 14 2 17 -29 17 -26 0 -36 -4 -36 -15z"/>
<path d="M809 1235 c9 -25 19 -45 22 -45 6 0 39 73 39 85 0 3 -17 5 -39 5 l-39 0 17 -45z"/>
<path d="M890 1240 c-6 -21 -15 -42 -20 -45 -6 -3 -10 -15 -10 -25 0 -20 31 -80 41 -80 8 0 49 147 49 173 0 11 -8 17 -25 17 -20 0 -26 -7 -35 -40z"/>
<path d="M971 1224 c-12 -61 -9 -76 15 -67 21 8 136 -107 160 -158 11 -25 23 -38 33 -37 20 4 39 -52 54 -159 9 -69 15 -83 29 -83 17 0 18 18 18 280 l0 280 -149 0 -148 0 -12 -56z"/>
<path d="M690 1234 c0 -3 28 -36 61 -72 34 -37 66 -77 72 -89 9 -20 37 -33 37 -17 0 11 -63 96 -96 129 -34 35 -74 61 -74 49z"/>
<path d="M521 1172 c-60 -62 -89 -107 -77 -119 5 -5 15 3 24 17 9 14 43 52 74 86 32 33 58 64 58 67 0 19 -28 1 -79 -51z"/>
<path d="M328 828 c-35 -9 -38 -13 -38 -46 l1 -37 15 28 c19 35 37 36 24 1 -13 -33 -13 -91 0 -99 6 -4 10 8 10 30 0 46 23 101 48 114 42 23 69 13 107 -36 31 -40 35 -53 30 -81 -6 -31 -5 -33 14 -22 18 9 21 20 21 69 l0 59 -40 16 c-44 18 -134 20 -192 4z"/>
<path d="M795 826 l-40 -12 -3 -67 c-2 -50 0 -67 10 -67 9 0 13 16 14 48 0 26 6 57 13 69 13 26 72 40 110 27 32 -11 61 -66 61 -117 0 -23 4 -36 10 -32 6 3 10 18 10 32 0 15 3 23 7 20 11 -12 32 27 33 59 0 27 -4 32 -39 42 -48 15 -134 14 -186 -2z"/>
<path d="M360 696 c-15 -19 -5 -36 21 -36 22 0 25 22 5 39 -10 9 -16 8 -26 -3z"/>
<path d="M804 695 c-4 -10 -1 -21 7 -26 23 -14 31 -10 27 13 -4 27 -26 35 -34 13z"/>
<path d="M75 334 c-27 -28 -75 -132 -75 -164 0 -17 9 -40 20 -52 l19 -21 54 27 c30 14 66 37 80 50 l26 24 -29 58 c-16 33 -32 67 -34 77 -7 21 -39 22 -61 1z"/>
<path d="M1114 275 l-37 -76 22 -23 c21 -22 85 -58 129 -71 16 -5 22 -2 22 9 0 9 7 16 15 16 34 0 1 111 -56 191 -34 48 -53 38 -95 -46z"/>
<path d="M1256 299 c18 -35 24 -37 24 -5 0 15 -7 26 -20 29 -18 5 -19 3 -4 -24z"/>
<path d="M265 140 c-17 -37 -17 -41 0 -66 l17 -26 27 26 c32 30 43 33 40 9 -1 -10 1 -26 6 -36 4 -10 2 -23 -5 -32 -11 -13 -3 -15 58 -15 61 0 70 2 75 20 7 27 27 25 28 -2 l0 -23 10 23 c9 24 29 22 29 -4 0 -11 18 -14 84 -14 75 0 84 2 89 20 7 27 25 25 30 -2 l4 -23 2 23 c1 27 31 30 31 2 0 -18 7 -20 71 -20 62 0 70 2 59 15 -7 9 -9 22 -5 32 5 10 7 26 6 36 -3 25 17 21 44 -10 23 -28 24 -28 39 -8 8 11 16 28 16 38 0 18 -27 77 -35 77 -2 0 -26 -9 -53 -19 -169 -67 -439 -67 -591 0 -24 10 -47 19 -51 19 -4 0 -15 -18 -25 -40z"/>
<path d="M175 138 c-58 -44 -122 -71 -152 -63 -20 5 -24 2 -21 -12 3 -15 14 -18 68 -18 36 1 86 4 111 8 46 8 46 9 46 45 0 20 2 43 4 51 7 24 -15 20 -56 -11z"/>
<path d="M1045 118 l3 -53 54 -12 c60 -13 138 -16 162 -7 27 10 20 35 -9 28 -27 -7 -115 30 -168 70 -19 14 -37 26 -40 26 -3 0 -4 -24 -2 -52z"/>
<path d="M1025 16 c-18 -14 -7 -15 118 -16 75 0 137 4 137 8 0 5 -26 8 -57 8 -32 -1 -85 2 -118 7 -47 6 -65 4 -80 -7z"/>
</g>
<g id="layer121" fill="#fca8b7" stroke="none">
<path d="M615 1146 c-12 -8 -16 -19 -11 -31 3 -10 1 -23 -5 -31 -6 -7 -8 -22 -4 -34 5 -16 15 -20 55 -20 55 0 72 20 43 53 -12 13 -14 21 -7 24 19 6 4 41 -19 47 -30 8 -31 8 -52 -8z"/>
<path d="M503 989 c-70 -12 -132 -42 -172 -83 l-33 -34 84 5 c99 7 188 -14 213 -49 8 -13 15 -39 15 -60 l0 -38 45 0 45 0 0 44 c0 27 6 51 16 60 27 28 120 48 200 44 41 -2 74 -1 74 2 0 12 -55 58 -88 75 -80 40 -267 56 -399 34z m198 -50 c42 -14 64 -33 55 -48 -5 -7 -15 -5 -32 6 -34 22 -108 21 -133 -1 -12 -11 -21 -14 -26 -7 -9 16 3 31 39 47 39 16 54 17 97 3z m-37 -120 c-3 -5 -10 -7 -15 -3 -5 3 -7 10 -3 15 3 5 10 7 15 3 5 -3 7 -10 3 -15z"/>
<path d="M75 334 c-27 -28 -75 -132 -75 -164 0 -17 9 -40 20 -52 l19 -21 54 27 c30 14 65 37 79 49 l25 24 -36 76 c-37 79 -55 92 -86 61z"/>
<path d="M1114 275 l-37 -76 22 -23 c21 -22 85 -58 129 -71 16 -5 22 -2 22 9 0 9 7 16 15 16 24 0 18 49 -14 117 -31 66 -62 103 -85 103 -8 0 -31 -34 -52 -75z"/>
</g>
<g id="layer122" fill="#e7c8b9" stroke="none">
<path d="M615 1146 c-12 -8 -16 -19 -11 -31 3 -10 1 -23 -5 -31 -12 -14 -3 -54 12 -54 5 0 9 11 9 25 0 20 5 25 24 25 31 0 56 -28 35 -41 -12 -7 -11 -9 2 -9 25 0 32 30 12 53 -12 13 -14 21 -7 24 19 6 4 41 -19 47 -30 8 -31 8 -52 -8z"/>
<path d="M633 1033 c4 -3 10 -3 14 0 3 4 0 7 -7 7 -7 0 -10 -3 -7 -7z"/>
<path d="M506 989 c-53 -9 -98 -24 -135 -48 -23 -15 -23 -15 -2 -23 12 -4 21 -14 21 -23 0 -11 11 -15 43 -15 62 0 144 -27 162 -53 8 -12 15 -38 15 -59 l0 -38 45 0 45 0 0 44 c0 27 6 51 15 60 21 20 108 46 157 46 27 0 38 4 38 15 0 9 10 19 22 24 21 8 20 10 -21 30 -88 45 -269 63 -405 40z m195 -50 c42 -14 64 -33 55 -48 -5 -7 -15 -5 -32 6 -34 22 -108 21 -133 -1 -12 -11 -21 -14 -26 -7 -9 16 3 31 39 47 39 16 54 17 97 3z m-37 -120 c-3 -5 -10 -7 -15 -3 -5 3 -7 10 -3 15 3 5 10 7 15 3 5 -3 7 -10 3 -15z"/>
<path d="M305 880 c-3 -5 -1 -10 4 -10 6 0 11 5 11 10 0 6 -2 10 -4 10 -3 0 -8 -4 -11 -10z"/>
<path d="M980 880 c0 -7 3 -10 7 -7 3 4 3 10 0 14 -4 3 -7 0 -7 -7z"/>
<path d="M328 829 c-35 -10 -38 -14 -38 -47 l1 -37 15 28 c19 35 37 36 24 1 -13 -33 -13 -91 0 -99 6 -4 10 8 10 30 0 46 23 101 48 114 42 23 69 13 107 -36 31 -40 35 -53 30 -81 -6 -31 -5 -33 14 -22 18 9 21 20 21 69 0 53 -2 59 -27 71 -37 17 -158 22 -205 9z"/>
<path d="M795 826 l-40 -12 -3 -67 c-2 -50 0 -67 10 -67 9 0 13 16 14 48 0 26 6 57 13 69 13 26 72 40 110 27 32 -11 61 -66 61 -117 0 -23 4 -36 10 -32 6 3 10 18 10 32 0 15 3 23 7 20 11 -12 32 27 33 59 0 29 -4 33 -44 43 -56 14 -129 13 -181 -3z"/>
<path d="M596 665 c-9 -14 -24 -25 -32 -25 -9 0 -32 -14 -52 -31 -32 -29 -40 -31 -85 -26 -27 4 -60 13 -73 22 -31 20 -33 19 -25 -12 4 -17 21 -34 45 -46 37 -20 40 -20 110 -3 39 10 78 20 86 23 8 2 4 -5 -10 -16 -14 -11 -38 -23 -54 -27 -43 -9 -13 -24 51 -24 37 0 55 -5 61 -16 8 -14 10 -14 21 0 9 10 30 16 57 16 37 0 44 -3 48 -22 23 -118 24 -118 25 -40 1 67 2 72 24 73 17 0 12 5 -19 19 -38 17 -76 50 -43 37 8 -3 46 -13 86 -23 64 -15 76 -16 110 -3 25 10 41 24 47 42 13 35 4 42 -27 22 -13 -8 -47 -18 -74 -22 -45 -5 -53 -3 -85 26 -20 17 -41 31 -47 31 -6 0 -18 11 -27 25 -13 20 -24 25 -59 25 -35 0 -46 -5 -59 -25z"/>
<path d="M75 334 c-29 -29 -75 -133 -75 -169 0 -48 15 -44 36 11 9 25 34 70 56 100 21 30 38 59 38 64 0 16 -37 11 -55 -6z"/>
</g>
<g id="layer123" fill="#d3d1d2" stroke="none">
<path d="M0 1000 c0 -271 1 -280 20 -280 10 0 23 -8 29 -17 7 -13 11 -3 16 42 7 63 19 125 36 188 7 27 14 37 25 33 9 -4 21 9 35 37 24 45 133 157 154 157 10 0 11 8 5 33 -4 17 -11 44 -14 60 l-6 27 -150 0 -150 0 0 -280z"/>
<path d="M334 1263 c3 -10 10 -40 16 -68 12 -58 30 -105 39 -105 3 0 16 16 29 35 l22 35 -20 45 c-11 24 -20 51 -20 59 0 12 -10 16 -36 16 -29 0 -34 -3 -30 -17z"/>
<path d="M804 1248 c7 -18 15 -40 18 -48 3 -11 8 -8 20 10 9 14 19 35 23 48 6 20 3 22 -34 22 l-40 0 13 -32z"/>
<path d="M890 1240 c-6 -21 -15 -42 -20 -45 -22 -13 5 -95 31 -95 9 0 33 78 45 143 6 35 5 37 -20 37 -21 0 -27 -6 -36 -40z"/>
<path d="M974 1233 c-12 -71 -11 -78 13 -78 29 0 137 -105 160 -156 10 -22 23 -37 30 -34 7 2 17 -3 22 -13 10 -19 39 -151 43 -197 2 -19 9 -31 21 -33 16 -3 17 15 17 277 l0 281 -149 0 -149 0 -8 -47z"/>
<path d="M690 1235 c0 -3 26 -34 59 -69 32 -34 66 -75 76 -89 24 -38 40 -34 18 4 -34 59 -153 179 -153 154z"/>
<path d="M549 1201 c-43 -36 -115 -138 -105 -148 4 -4 12 0 17 9 17 31 109 136 124 142 15 6 21 26 7 26 -4 0 -23 -13 -43 -29z"/>
<path d="M865 831 c22 -4 46 -10 54 -15 19 -12 41 -70 41 -111 0 -22 4 -34 10 -30 6 3 10 17 10 31 0 14 4 23 9 20 10 -7 31 38 31 68 0 20 -8 26 -44 35 -25 6 -69 10 -98 10 -52 -1 -52 -2 -13 -8z"/>
<path d="M361 692 c-12 -22 -6 -32 21 -32 21 0 24 23 4 39 -12 10 -17 8 -25 -7z"/>
<path d="M806 703 c-12 -13 -5 -31 14 -36 15 -4 20 0 20 13 0 18 -23 34 -34 23z"/>
<path d="M75 334 c-29 -29 -75 -133 -75 -169 0 -45 15 -45 30 1 7 19 32 65 56 101 24 36 44 70 44 74 0 15 -38 10 -55 -7z"/>
<path d="M1145 340 c-3 -5 7 -27 24 -47 31 -40 81 -133 81 -152 0 -6 7 -11 15 -11 24 0 18 49 -14 117 -41 86 -86 126 -106 93z"/>
<path d="M0 298 c0 -12 1 -19 3 -17 1 2 9 12 16 22 12 14 11 17 -3 17 -10 0 -16 -8 -16 -22z"/>
<path d="M1250 313 c0 -5 7 -17 15 -27 14 -19 15 -19 15 7 0 17 -5 27 -15 27 -8 0 -15 -3 -15 -7z"/>
<path d="M265 140 c-17 -37 -17 -41 0 -66 l17 -26 26 25 c25 24 82 47 82 33 0 -3 -11 -29 -24 -56 l-24 -50 69 0 c59 0 69 3 69 18 0 9 11 25 24 34 22 16 23 16 36 -18 l14 -34 83 0 c51 0 83 4 83 10 0 6 7 22 16 35 15 23 17 23 33 7 10 -9 21 -25 24 -34 5 -15 19 -18 73 -18 52 0 64 3 57 13 -5 6 -17 32 -27 55 l-17 44 33 -7 c18 -4 40 -18 51 -31 24 -31 32 -30 47 7 11 26 10 36 -4 66 -13 27 -21 33 -34 27 -181 -78 -470 -84 -631 -13 -24 10 -47 19 -51 19 -4 0 -15 -18 -25 -40z"/>
<path d="M195 150 c-29 -32 -141 -83 -170 -78 -31 6 -35 -18 -4 -27 23 -8 152 3 184 15 14 5 20 17 20 41 1 19 3 40 6 48 7 22 -16 23 -36 1z"/>
<path d="M1045 118 c4 -60 6 -61 120 -73 75 -8 115 -1 115 21 0 11 -6 13 -20 9 -29 -9 -86 12 -154 56 -32 22 -60 39 -62 39 -1 0 -1 -24 1 -52z"/>
<path d="M222 33 c-22 -9 7 -33 41 -33 29 0 30 0 12 20 -18 20 -29 23 -53 13z"/>
<path d="M1026 15 c-18 -14 -7 -15 119 -15 146 0 178 8 54 14 -41 2 -92 7 -114 10 -28 5 -46 2 -59 -9z"/>
<path d="M0 8 c0 -5 37 -8 82 -8 45 0 78 3 74 8 -10 9 -156 9 -156 0z"/>
</g>
<g id="layer124" fill="#eddad1" stroke="none">
<path d="M0 1000 c0 -271 1 -280 20 -280 10 0 23 -7 28 -16 6 -11 13 12 22 77 16 123 37 192 55 185 9 -3 24 14 43 47 28 49 76 101 131 139 20 14 23 22 17 55 -14 79 -1 73 -167 73 l-149 0 0 -280z"/>
<path d="M342 1233 c13 -66 38 -143 47 -143 13 0 41 58 41 84 0 40 -15 31 -33 -21 l-17 -48 5 55 c3 30 8 70 11 88 6 31 5 32 -29 32 l-35 0 10 -47z"/>
<path d="M435 1253 c3 -14 13 -35 20 -46 14 -20 14 -20 20 -1 4 10 11 29 16 42 13 32 13 32 -27 32 -34 0 -36 -1 -29 -27z"/>
<path d="M805 1250 c8 -16 15 -37 15 -47 0 -24 15 -6 35 40 l15 37 -40 0 -41 0 16 -30z"/>
<path d="M897 1259 c-3 -12 -1 -46 4 -76 13 -67 5 -79 -17 -27 -10 24 -19 33 -22 25 -5 -16 26 -81 39 -81 9 0 33 79 45 143 6 35 5 37 -19 37 -17 0 -26 -7 -30 -21z"/>
<path d="M974 1228 c-11 -73 -11 -73 9 -70 25 4 107 -69 147 -132 19 -30 42 -55 51 -56 18 0 43 -77 54 -165 9 -66 14 -85 26 -85 5 0 9 113 9 280 l0 280 -144 0 -144 0 -8 -52z"/>
<path d="M542 1192 c-37 -37 -102 -124 -102 -136 0 -15 18 -4 27 17 6 12 39 52 73 90 65 71 67 94 2 29z"/>
<path d="M700 1222 c0 -4 23 -30 51 -57 27 -28 59 -65 70 -82 26 -42 46 -44 22 -3 -39 67 -143 170 -143 142z"/>
<path d="M621 1148 c-18 -6 -22 -13 -17 -32 3 -14 2 -28 -4 -31 -5 -3 -10 -11 -10 -17 0 -6 6 -6 15 2 10 8 30 11 56 7 29 -4 38 -2 31 5 -6 6 -8 23 -5 38 4 23 1 28 -19 32 -14 3 -35 1 -47 -4z"/>
<path d="M512 989 c-57 -10 -152 -46 -152 -59 0 -4 7 -10 15 -14 8 -3 15 -12 15 -19 0 -10 19 -16 68 -19 62 -5 129 -28 143 -50 3 -5 16 -5 30 0 14 6 34 6 48 0 14 -5 27 -5 30 0 13 21 78 45 133 49 32 3 58 9 58 14 0 5 9 17 20 27 21 19 21 19 -28 40 -90 39 -253 52 -380 31z m189 -49 c40 -11 64 -33 54 -50 -4 -6 -16 -5 -35 5 -37 19 -100 19 -127 0 -26 -18 -42 -2 -22 22 27 32 71 39 130 23z"/>
<path d="M303 873 c4 -3 10 -3 14 0 3 4 0 7 -7 7 -7 0 -10 -3 -7 -7z"/>
<path d="M328 829 c-35 -10 -38 -14 -38 -47 0 -36 1 -36 13 -13 18 36 40 41 27 6 -13 -34 -13 -92 0 -100 6 -4 10 10 10 35 0 72 37 120 94 120 39 0 100 -84 92 -128 -4 -29 -3 -31 15 -22 15 9 19 22 19 69 0 53 -2 59 -27 71 -37 17 -158 22 -205 9z"/>
<path d="M865 831 c22 -4 46 -10 54 -15 19 -12 41 -70 41 -111 0 -45 20 -37 21 8 0 18 3 26 6 19 7 -18 33 32 33 63 0 18 -8 25 -44 34 -25 6 -69 10 -98 10 -52 -1 -52 -2 -13 -8z"/>
<path d="M772 818 c-21 -10 -23 -17 -20 -71 2 -35 8 -62 15 -64 7 -3 9 3 6 16 -8 32 6 90 28 112 21 21 8 24 -29 7z"/>
<path d="M610 767 l0 -37 45 0 45 0 0 37 c0 29 -3 34 -12 25 -15 -15 -51 -15 -66 0 -9 9 -12 4 -12 -25z"/>
<path d="M367 703 c-15 -15 -6 -43 13 -43 11 0 20 6 20 14 0 17 -24 38 -33 29z"/>
<path d="M807 703 c-13 -13 -7 -31 13 -36 12 -3 20 0 20 8 0 16 -25 37 -33 28z"/>
<path d="M603 670 c-3 -11 -20 -24 -40 -31 -19 -6 -37 -17 -39 -24 -15 -37 -126 -43 -170 -10 -27 20 -32 18 -26 -11 3 -18 17 -32 48 -47 42 -20 44 -20 106 -3 113 33 105 31 89 13 -7 -9 -31 -22 -53 -29 -33 -10 -37 -13 -22 -19 11 -4 39 -8 65 -8 25 -1 50 -6 57 -13 9 -9 15 -9 24 0 7 7 31 12 55 12 36 0 43 -3 47 -22 3 -13 8 -41 13 -63 7 -38 8 -36 11 28 3 61 5 67 25 67 16 0 11 5 -19 19 -38 18 -76 51 -43 38 8 -3 46 -13 86 -23 63 -15 76 -16 109 -3 26 10 40 23 47 42 12 36 5 43 -25 23 -39 -25 -109 -31 -146 -12 -18 9 -32 21 -32 27 0 5 -13 15 -29 20 -16 6 -31 19 -34 30 -8 28 -97 28 -104 -1z"/>
<path d="M82 334 c-31 -22 -82 -126 -82 -169 0 -45 15 -45 30 1 7 19 32 65 56 101 24 36 44 70 44 74 0 14 -23 11 -48 -7z"/>
<path d="M1145 340 c-3 -5 7 -27 24 -47 31 -40 81 -133 81 -152 0 -6 5 -11 10 -11 21 0 10 79 -20 136 -39 75 -76 104 -95 74z"/>
<path d="M270 147 c-20 -32 -19 -58 3 -85 8 -10 15 -8 36 10 34 30 72 51 79 43 8 -8 -17 -76 -36 -97 -14 -17 -11 -18 56 -18 62 0 72 2 72 18 0 10 9 25 20 35 25 21 30 21 30 2 0 -8 5 -15 10 -15 6 0 10 -9 10 -20 0 -18 7 -20 83 -20 l83 0 14 35 c8 19 17 35 20 35 10 0 36 -32 43 -52 5 -15 18 -18 71 -18 l64 0 -24 50 c-22 47 -29 70 -20 70 18 0 74 -33 84 -49 17 -29 27 -26 42 10 12 27 11 36 -5 65 -13 25 -23 33 -34 28 -9 -3 -40 -14 -69 -25 -165 -58 -398 -53 -561 10 l-51 21 -20 -33z"/>
<path d="M195 150 c-29 -32 -141 -83 -170 -78 -33 7 -34 -19 0 -28 25 -6 184 11 194 22 3 3 6 20 6 37 1 18 3 38 6 46 7 22 -16 23 -36 1z"/>
<path d="M1048 164 c-5 -5 -1 -94 4 -100 10 -9 170 -26 193 -20 14 4 25 13 25 22 0 8 -5 12 -11 9 -21 -14 -80 7 -143 49 -36 24 -67 42 -68 40z"/>
<path d="M222 33 c-23 -9 8 -33 42 -33 l31 0 -25 20 c-27 21 -28 21 -48 13z"/>
<path d="M1026 15 c-18 -14 -7 -15 115 -14 122 2 127 2 59 9 -41 4 -93 10 -115 14 -28 4 -46 1 -59 -9z"/>
<path d="M0 8 c0 -5 37 -8 82 -8 45 0 78 3 74 7 -10 10 -156 10 -156 1z"/>
</g>
<g id="layer125" fill="#fdecd8" stroke="none">
<path d="M0 1000 l0 -280 24 0 c15 0 26 -7 28 -17 2 -10 8 12 12 49 4 36 15 99 25 140 13 57 21 73 34 72 11 -1 23 12 34 35 9 20 50 69 91 109 l74 73 -12 49 -12 50 -149 0 -149 0 0 -280z"/>
<path d="M346 1218 c19 -83 34 -128 42 -128 11 0 42 60 42 81 0 33 -16 21 -31 -23 l-14 -43 -3 44 c-2 23 2 57 7 74 18 49 14 57 -23 57 l-34 0 14 -62z"/>
<path d="M430 1268 c1 -7 9 -28 19 -47 l18 -34 10 29 c6 16 14 37 18 47 6 14 1 17 -29 17 -22 0 -36 -5 -36 -12z"/>
<path d="M800 1273 c0 -5 6 -26 14 -47 13 -37 14 -38 25 -18 6 11 15 32 21 46 9 25 8 26 -25 26 -19 0 -35 -3 -35 -7z"/>
<path d="M898 1262 c-3 -10 0 -47 7 -83 l11 -64 17 74 c21 93 22 91 -7 91 -15 0 -26 -7 -28 -18z"/>
<path d="M973 1223 c-12 -63 -8 -80 12 -63 16 13 144 -109 164 -157 8 -20 20 -33 32 -33 20 0 32 -33 50 -140 17 -104 19 -110 29 -110 6 0 10 104 10 280 l0 280 -143 0 -144 0 -10 -57z"/>
<path d="M700 1222 c0 -4 23 -30 51 -57 27 -28 60 -65 71 -84 12 -19 24 -29 26 -22 4 13 -32 65 -82 119 -33 36 -66 58 -66 44z"/>
<path d="M860 1175 c0 -11 9 -33 21 -50 19 -28 20 -28 14 -5 -4 14 -14 36 -21 50 -12 22 -13 23 -14 5z"/>
<path d="M606 1134 c-3 -9 -3 -20 0 -25 3 -6 0 -16 -6 -24 -15 -18 -6 -19 21 -4 15 7 29 7 52 -1 24 -8 29 -8 20 1 -7 7 -9 24 -6 40 5 28 4 29 -35 29 -27 0 -42 -5 -46 -16z"/>
<path d="M518 989 c-32 -4 -80 -18 -108 -30 -51 -22 -51 -22 -30 -41 11 -10 20 -23 20 -28 0 -6 19 -10 43 -10 56 0 144 -26 155 -46 7 -13 13 -14 31 -5 12 7 31 9 42 6 11 -4 38 2 64 15 25 12 72 24 105 27 33 3 60 10 60 16 0 6 7 18 16 28 15 16 13 19 -17 34 -72 38 -250 53 -381 34z m197 -54 c34 -14 54 -39 41 -52 -4 -4 -20 1 -35 10 -36 21 -100 22 -127 2 -26 -20 -34 -19 -34 5 0 14 11 26 33 35 42 18 79 19 122 0z"/>
<path d="M333 828 c-39 -8 -43 -12 -43 -39 l0 -30 26 28 c18 19 24 22 20 10 -14 -44 -17 -96 -7 -113 9 -16 10 -12 11 24 1 125 87 165 158 73 25 -33 33 -52 30 -73 -3 -17 0 -28 8 -28 24 0 33 95 12 122 -29 35 -124 47 -215 26z"/>
<path d="M875 831 c52 -8 85 -54 85 -120 0 -33 3 -42 10 -31 5 8 10 25 10 38 0 13 4 21 9 18 10 -6 31 37 31 63 0 23 -66 42 -137 40 l-48 -2 40 -6z"/>
<path d="M780 817 c-19 -9 -26 -22 -28 -51 -2 -22 0 -51 4 -65 6 -22 9 -16 14 32 4 33 15 66 25 77 21 23 19 24 -15 7z"/>
<path d="M610 763 c0 -20 5 -23 45 -23 40 0 45 3 45 23 0 20 -5 22 -45 22 -40 0 -45 -2 -45 -22z"/>
<path d="M605 671 c-3 -11 -21 -25 -40 -31 -19 -6 -35 -16 -35 -21 0 -15 -57 -39 -92 -39 -18 0 -52 9 -75 19 -38 18 -41 18 -36 3 10 -27 32 -49 63 -62 23 -10 42 -8 105 9 43 12 80 20 82 17 7 -7 -59 -46 -77 -46 -13 0 -13 -1 0 -10 8 -5 36 -10 62 -10 26 0 50 -5 53 -10 5 -8 11 -8 20 0 7 6 35 10 62 8 l48 -3 8 -54 c11 -77 17 -76 17 2 0 63 1 67 23 67 15 1 8 7 -25 22 -27 11 -48 24 -48 29 0 12 -1 12 84 -11 91 -25 150 -16 166 26 16 41 12 44 -32 24 -66 -30 -123 -26 -159 9 -16 17 -38 33 -49 36 -10 3 -22 15 -25 26 -9 28 -91 28 -100 0z"/>
<path d="M74 325 c-33 -33 -74 -122 -74 -162 0 -48 12 -40 40 24 13 31 39 77 57 100 46 60 28 89 -23 38z"/>
<path d="M1147 344 c-4 -4 9 -28 27 -53 40 -55 76 -124 76 -146 0 -8 5 -15 10 -15 19 0 10 71 -15 123 -36 78 -75 113 -98 91z"/>
<path d="M281 166 c-28 -36 -32 -56 -15 -88 l17 -32 21 24 c22 26 75 54 84 45 6 -6 -17 -84 -31 -102 -7 -10 5 -13 57 -13 57 0 66 2 66 18 0 11 9 27 20 37 20 18 21 18 35 -1 8 -10 15 -27 15 -36 0 -16 11 -18 83 -18 l83 0 14 35 c8 19 17 35 20 35 10 0 36 -32 43 -52 5 -15 18 -18 71 -18 l64 0 -24 48 c-22 43 -30 72 -20 72 17 0 78 -34 83 -45 8 -22 31 -18 44 6 9 17 7 30 -7 60 -9 22 -18 39 -20 39 -1 0 -22 -8 -46 -18 -157 -67 -387 -73 -566 -13 -57 19 -85 24 -91 17z"/>
<path d="M195 150 c-29 -32 -141 -83 -170 -78 -35 7 -33 -19 2 -26 27 -6 181 9 191 18 8 8 11 106 3 106 -4 0 -16 -9 -26 -20z"/>
<path d="M1048 165 c-5 -5 -2 -95 3 -100 2 -2 41 -8 86 -15 86 -11 133 -6 133 15 0 8 -8 11 -20 8 -28 -8 -103 23 -155 62 -24 19 -45 32 -47 30z"/>
<path d="M225 30 c-11 -18 5 -30 38 -30 l32 0 -25 20 c-29 22 -36 24 -45 10z"/>
</g>
<g id="layer126" fill="#fdfdfd" stroke="none">
<path d="M0 1000 l0 -280 24 0 c15 0 26 -7 28 -17 2 -10 7 9 11 42 14 122 39 218 58 222 10 3 30 24 43 48 14 24 55 70 91 103 l65 60 -11 51 -11 51 -149 0 -149 0 0 -280z"/>
<path d="M333 1273 c2 -5 13 -44 23 -88 l18 -80 7 60 c3 33 10 72 14 88 7 26 6 27 -30 27 -20 0 -34 -3 -32 -7z"/>
<path d="M430 1268 c1 -7 9 -28 19 -47 l18 -34 16 46 16 47 -35 0 c-21 0 -34 -5 -34 -12z"/>
<path d="M800 1278 c0 -2 6 -23 14 -48 12 -41 14 -43 24 -23 7 12 16 33 22 47 9 25 8 26 -25 26 -19 0 -35 -1 -35 -2z"/>
<path d="M897 1260 c-3 -12 -1 -35 4 -53 5 -17 9 -45 10 -62 1 -26 3 -24 14 16 7 26 15 63 19 83 6 33 5 36 -17 36 -16 0 -26 -7 -30 -20z"/>
<path d="M985 1268 c-11 -33 -23 -103 -18 -110 2 -5 11 -4 18 2 10 8 29 -5 82 -57 38 -37 75 -83 82 -100 8 -21 20 -33 32 -33 22 0 38 -53 64 -212 3 -21 10 -38 15 -38 6 0 10 109 10 280 l0 280 -140 0 c-104 0 -142 -3 -145 -12z"/>
<path d="M543 1191 c-37 -35 -103 -122 -103 -135 0 -15 18 -4 27 17 6 12 39 52 73 90 66 72 68 92 3 28z"/>
<path d="M700 1224 c0 -4 26 -35 58 -68 31 -34 65 -72 74 -86 11 -16 17 -20 17 -10 1 20 -80 122 -118 149 -17 12 -31 19 -31 15z"/>
<path d="M417 1183 c-14 -23 -36 -93 -29 -93 13 0 44 67 40 86 -2 13 -6 15 -11 7z"/>
<path d="M860 1168 c0 -7 9 -26 20 -43 24 -36 25 -30 5 19 -16 37 -25 46 -25 24z"/>
<path d="M468 820 c12 -13 32 -39 45 -57 27 -41 37 -42 37 -3 0 31 -30 70 -54 70 -8 0 -22 3 -32 7 -15 6 -14 3 4 -17z"/>
<path d="M910 836 c0 -6 19 -31 62 -80 l27 -31 1 36 c0 22 -7 42 -17 52 -19 16 -73 34 -73 23z"/>
<path d="M360 681 c0 -15 6 -21 21 -21 25 0 22 33 -4 38 -12 2 -17 -3 -17 -17z"/>
<path d="M800 686 c0 -10 9 -16 21 -16 24 0 21 23 -4 28 -10 2 -17 -3 -17 -12z"/>
<path d="M74 325 c-50 -50 -98 -195 -64 -195 6 0 10 6 10 13 0 24 48 114 79 150 47 53 24 81 -25 32z"/>
<path d="M1147 344 c-4 -4 7 -24 23 -44 17 -21 45 -69 63 -107 l32 -68 3 37 c5 58 -65 188 -102 188 -7 0 -16 -3 -19 -6z"/>
<path d="M0 298 c0 -19 2 -20 10 -8 13 19 13 30 0 30 -5 0 -10 -10 -10 -22z"/>
<path d="M1256 305 c4 -8 8 -15 10 -15 2 0 4 7 4 15 0 8 -4 15 -10 15 -5 0 -7 -7 -4 -15z"/>
<path d="M280 165 c-23 -28 -27 -60 -13 -90 l16 -29 21 24 c22 26 75 54 84 45 6 -6 -17 -84 -31 -102 -7 -10 5 -13 57 -13 57 0 66 2 66 18 0 11 9 27 21 38 20 18 21 18 35 -1 8 -10 14 -27 14 -37 0 -16 10 -18 85 -18 78 0 85 2 85 20 0 11 5 20 10 20 6 0 10 7 10 15 0 8 4 15 8 15 11 0 37 -30 45 -52 5 -15 18 -18 71 -18 l65 0 -24 42 c-22 38 -33 78 -21 78 17 0 78 -34 83 -45 8 -22 31 -18 44 6 9 17 7 30 -7 60 -9 22 -19 39 -21 39 -2 0 -16 -6 -31 -14 -42 -21 -144 -46 -236 -56 -104 -12 -234 3 -344 39 -60 20 -85 24 -92 16z"/>
<path d="M195 150 c-29 -32 -141 -83 -170 -78 -17 4 -25 1 -25 -8 0 -8 10 -14 23 -15 51 -2 134 3 165 9 32 7 34 9 37 60 4 56 -2 63 -30 32z"/>
<path d="M1047 162 c-3 -4 -2 -27 2 -51 7 -51 22 -59 120 -62 86 -2 101 0 101 15 0 9 -7 12 -20 9 -28 -8 -103 23 -155 63 -24 18 -46 30 -48 26z"/>
<path d="M229 30 c-21 -13 2 -32 34 -28 l25 3 -22 17 c-15 10 -28 13 -37 8z"/>
<path d="M1031 16 c-12 -14 -1 -16 115 -15 125 2 127 2 49 9 -44 4 -96 11 -116 15 -26 5 -39 3 -48 -9z"/>
<path d="M65 10 l-70 -6 83 -2 c53 -1 81 2 77 8 -3 6 -9 9 -13 8 -4 -1 -38 -4 -77 -8z"/>
</g>


</svg>